# This file uses centimeters as units for non-parametric coordinates.

mtllib r_2.mtl
g default
v 10.314185 6.169202 65.876228
v -0.963105 10.433512 59.111614
v 8.821069 9.170894 57.923054
v -1.421684 10.330787 49.256771
v 9.896023 10.211229 68.599869
v 0.156566 10.090144 68.861984
v 8.747733 9.134249 49.199234
v -2.070395 6.721423 48.679878
v -2.042436 5.073750 47.142490
v -1.996014 -0.100506 43.932491
v 9.288100 -0.100506 43.932491
v 9.296839 3.413341 43.952122
v -1.698626 -0.100506 53.812653
v 8.524318 5.825860 58.855759
v 5.479399 2.382031 54.494534
v 9.976565 9.249696 65.897285
v 5.177973 -0.100506 54.078297
v 6.177372 4.204536 55.692177
v 10.314185 6.169202 69.264961
v 1.757252 6.169202 72.006516
v -1.353026 -0.100506 34.125504
v 10.231859 -0.100506 30.799917
v 11.192016 -0.100506 36.179375
v -1.352995 3.417187 34.125477
v 1.181588 -0.100506 29.397566
v 9.620506 -0.100506 41.176338
v 9.587079 3.459097 41.182304
v 11.192016 3.471347 36.179375
v 10.231859 3.424053 30.799917
v -1.977512 3.421437 43.942097
v -1.665412 3.327057 39.791069
v -1.668266 -0.100506 39.791534
v 9.099916 6.721466 48.679497
v 9.173765 5.073681 47.143017
v 1.181738 3.418401 29.397552
v -0.993467 6.241122 59.063976
v -1.540054 4.391671 55.522839
v -1.692188 2.500742 54.250095
v 1.986512 10.326792 71.447327
v 1.857599 -8.662966 72.006523
v 10.314185 -8.652605 69.264961
v 9.221404 -8.655627 57.924603
v 9.039800 -8.651356 49.880657
v 9.099916 -6.922478 48.679497
v 9.173765 -5.274693 47.143017
v 9.296839 -3.614352 43.952122
v -1.977512 -3.622448 43.942097
v 5.479399 -2.583043 54.494534
v 6.177372 -4.405548 55.692177
v -2.042436 -5.274762 47.142490
v 8.524318 -6.026872 58.855759
v -2.070395 -6.922434 48.679878
v -1.517323 -8.694884 59.263046
v 1.757252 -6.370214 72.006516
v -0.993467 -6.442132 59.063976
v -1.540054 -4.592683 55.522839
v -1.692188 -2.701754 54.250095
v 9.287559 -6.154102 63.160084
v -0.587869 -6.548114 64.742271
v 10.314185 -6.370214 69.264961
v 11.192016 -3.672359 36.179375
v 1.181738 -3.619411 29.397552
v 10.231859 -3.625066 30.799917
v -1.352995 -3.618198 34.125477
v 9.587079 -3.660109 41.182304
v -1.665412 -3.528069 39.791069
v -0.735178 -8.729323 65.742020
v -1.892023 -8.656342 49.945023
v 9.820817 -8.655875 63.044254
v -0.262768 6.169202 69.264961
v -1.996014 -0.100506 43.932491
v -1.698626 -0.100506 53.812653
v 5.177973 -0.100506 54.078297
v 9.288100 -0.100506 43.932491
v 9.620506 -0.100506 41.176338
v 11.192016 -0.100506 36.179375
v 10.231859 -0.100506 30.799917
v 1.181588 -0.100506 29.397566
v -1.353026 -0.100506 34.125504
v -1.668266 -0.100506 39.791534
v -1.698626 -0.100506 53.812653
v -1.692188 2.500742 54.250095
v -1.540054 4.391671 55.522839
v -1.698626 -0.100506 53.812653
v -1.540054 -4.592683 55.522839
v -1.692188 -2.701754 54.250095
v -0.587869 -6.548114 64.742271
v -0.993467 -6.442132 59.063976
v -1.517323 -8.694884 59.263046
v -0.735178 -8.729323 65.742020
v -1.892023 -8.656342 49.945023
v -2.070395 -6.922434 48.679878
v -2.042436 -5.274762 47.142490
v 9.099916 -6.922478 48.679497
v 9.173765 -5.274693 47.143017
v 9.039800 -8.651356 49.880657
v 9.221404 -8.655627 57.924603
v 9.820817 -8.655875 63.044254
v 9.296839 -3.614352 43.952122
v 9.587079 -3.660109 41.182304
v 11.192016 -3.672359 36.179375
v 9.587079 3.459097 41.182304
v 11.192016 3.471347 36.179375
v 9.099916 6.721466 48.679497
v 9.173765 5.073681 47.143017
v 9.296839 3.413341 43.952122
v 5.479399 2.382031 54.494534
v 5.177973 -0.100506 54.078297
v 6.177372 4.204536 55.692177
v 5.177973 -0.100506 54.078297
v 5.479399 -2.583043 54.494534
v 6.177372 -4.405548 55.692177
v 8.524318 -6.026872 58.855759
v 9.287559 -6.154102 63.160084
v 10.314185 6.169202 65.876228
v 8.524318 5.825860 58.855759
v 10.314185 6.169202 69.264961
v 10.314185 6.169202 69.264961
v 9.896023 10.211229 68.599869
v -0.963105 10.433512 59.111614
v 0.156566 10.090144 68.861984
v 1.986512 10.326792 71.447327
v 8.821069 9.170894 57.923054
v 8.747733 9.134249 49.199234
v 9.976565 9.249696 65.897285
v 9.896023 10.211229 68.599869
v -1.977512 -3.622448 43.942097
v -1.665412 -3.528069 39.791069
v -1.352995 -3.618198 34.125477
v 1.181738 -3.619411 29.397552
v 10.231859 -3.625066 30.799917
v 10.231859 3.424053 30.799917
v -1.352995 3.417187 34.125477
v 1.181738 3.418401 29.397552
v -1.665412 3.327057 39.791069
v -1.421684 10.330787 49.256771
v -2.070395 6.721423 48.679878
v -2.042436 5.073750 47.142490
v -1.977512 3.421437 43.942097
v -0.262768 6.169202 69.264961
v 1.757252 6.169202 72.006516
v -0.993467 6.241122 59.063976
v 1.857599 -8.662966 72.006523
v 10.314185 -8.652605 69.264961
v 10.314185 -6.370214 69.264961
v 1.757252 -6.370214 72.006516
v 1.757252 -6.370214 72.006516
v 1.857599 -8.662966 72.006523
v 10.314185 -8.652605 69.264961
v 10.314185 -6.370214 69.264961
v 1.986512 10.326792 71.447327
v 1.757252 6.169202 72.006516
vt 0.487824 0.312584
vt 0.493750 0.312693
vt 0.493750 0.347619
vt 0.612498 0.347623
vt 0.477189 0.343579
vt 0.400190 0.347623
vt 0.375111 0.347623
vt 0.499190 0.312727
vt 0.000000 1.000000
vt 1.000000 1.000000
vt 0.936890 0.103746
vt 0.063122 0.103749
vt 0.000000 1.000000
vt 1.000000 1.000000
vt 1.000000 0.000000
vt 0.000000 0.000000
vt 0.400000 0.347623
vt 0.477620 0.343942
vt 0.475000 0.688440
vt 0.400000 0.688440
vt 0.477620 0.343942
vt 0.500000 0.312500
vt 0.500000 0.688440
vt 0.475000 0.688440
vt 0.125000 0.125000
vt 0.125000 0.164791
vt 0.000000 0.000000
vt 0.000000 0.000000
vt 0.000000 0.000000
vt 0.000000 0.000000
vt 0.125000 0.164791
vt 0.129323 0.187500
vt 0.126244 0.207497
vt 0.687500 0.603776
vt 0.000000 0.000000
vt 0.129323 0.187500
vt 0.612498 0.347623
vt 0.493767 0.347623
vt 0.687500 0.603776
vt 0.063122 0.103749
vt 0.419525 0.000000
vt 0.000000 0.000000
vt 0.875000 0.164791
vt 0.875000 0.125000
vt 0.875000 0.164791
vt 0.000000 0.000000
vt 0.239657 0.000000
vt 0.870662 0.187500
vt 0.000000 0.000000
vt 0.873781 0.207492
vt 0.870662 0.187500
vt 0.239657 0.000000
vt 0.447004 0.688440
vt 0.447004 0.312500
vt 0.487500 0.312500
vt 0.487500 0.688440
vt 0.447004 0.688440
vt 0.425000 0.688440
vt 0.425000 0.312500
vt 0.447004 0.312500
vt 0.425000 0.688440
vt 0.394756 0.688440
vt 0.394756 0.312500
vt 0.425000 0.312500
vt 0.351397 0.795466
vt 0.000000 0.000000
vt 0.714862 0.094690
vt 0.648603 0.892034
vt 0.375111 0.347623
vt 0.493750 0.347619
vt 0.493750 0.312693
vt 0.499190 0.312727
vt 0.493767 0.347623
vt 0.375041 0.347623
vt 0.500000 0.612475
vt 0.687500 0.603776
vt 0.625000 0.585469
vt 0.625000 0.585450
vt 0.625000 0.625000
vt 0.625000 0.625000
vt 0.600000 0.500470
vt 0.600000 0.635059
vt 0.625000 0.635066
vt 0.625000 0.500470
vt 0.450000 0.500470
vt 0.449999 0.635066
vt 0.487500 0.635059
vt 0.487500 0.500470
vt 0.431067 0.630025
vt 0.449447 0.688440
vt 0.387609 0.688440
vt 0.612245 0.625402
vt 0.387500 0.635066
vt 0.449999 0.635066
vt 0.450000 0.500470
vt 0.387500 0.500470
vt 0.625000 0.625000
vt 0.625000 0.585450
vt 0.625000 0.585460
vt 0.625000 0.625000
vt 0.418770 0.573130
vt 0.431067 0.630025
vt 0.612245 0.625402
vt 0.394501 0.829489
vt 0.419446 0.575688
vt 0.418770 0.573130
vt 0.394501 0.829489
vt 0.573349 0.634055
vt 0.375000 0.585469
vt 0.375000 0.585456
vt 0.375000 0.625000
vt 0.375000 0.625000
vt 0.375000 0.585460
vt 0.375000 0.585469
vt 0.375000 0.625000
vt 0.375000 0.625000
vt 0.400000 0.347623
vt 0.400000 0.688440
vt 0.500000 0.612475
vt 0.375041 0.347623
vt 0.000000 0.000000
vt 0.000000 0.000000
vt 0.500000 0.312500
vt 0.493748 0.312557
vt 0.487824 0.312584
vt 0.936890 0.103746
vt 0.000000 0.000000
vt 0.493748 0.312557
vt 0.488102 0.312668
vt 0.612500 0.438162
vt 0.493750 0.438162
vt 0.493750 0.312693
vt 0.416789 0.438162
vt 0.497286 0.312709
vt 0.493750 0.312693
vt 0.493750 0.438162
vt 0.000000 0.000000
vt 1.000000 0.000000
vt 1.000000 1.000000
vt 0.000000 1.000000
vt 0.000000 0.000000
vt 1.000000 0.000000
vt 1.000000 1.000000
vt 0.000000 1.000000
vt 0.000000 0.000000
vt 1.000000 0.000000
vt 1.000000 1.000000
vt 0.000000 1.000000
vt 0.475000 0.688440
vt 0.475000 0.442687
vt 0.400000 0.442687
vt 0.400000 0.688440
vt 0.125000 0.125000
vt 0.000000 0.000000
vt 1.000000 0.000000
vt 0.125000 0.164791
vt 1.000000 0.000000
vt 0.129323 0.187500
vt 0.125000 0.164791
vt 1.000000 0.000000
vt 0.126244 0.207497
vt 0.129323 0.187500
vt 1.000000 0.000000
vt 1.000000 0.000000
vt 1.000000 0.000000
vt 0.307326 0.224136
vt 0.125609 0.224130
vt 0.126244 0.207497
vt 0.698448 0.224136
vt 0.625000 0.224136
vt 0.527404 0.000000
vt 1.000000 0.000000
vt 0.419525 0.000000
vt 0.875000 0.125000
vt 0.875000 0.164791
vt 0.000000 0.000000
vt 0.875000 0.164791
vt 0.870662 0.187500
vt 0.239657 0.000000
vt 0.000000 0.000000
vt 1.000000 0.000000
vt 0.239657 0.000000
vt 0.870662 0.187500
vt 0.873781 0.207492
vt 0.873781 0.207492
vt 0.874410 0.224136
vt 0.698448 0.224136
vt 1.000000 0.000000
vt 0.624557 0.585906
vt 0.375000 0.224136
vt 0.307326 0.224136
vt 1.000000 0.000000
vt 0.000000 0.000000
vt 0.176558 0.882753
vt 0.624557 0.585906
vt 0.714862 0.094690
vt 0.447004 0.688440
vt 0.487500 0.688440
vt 0.487500 0.312500
vt 0.447004 0.312500
vt 0.447004 0.688440
vt 0.447004 0.312500
vt 0.425000 0.312500
vt 0.425000 0.688440
vt 0.425000 0.688440
vt 0.425000 0.312500
vt 0.394756 0.312500
vt 0.394756 0.688440
vt 0.351397 0.892034
vt 0.591841 0.970159
vt 0.624557 0.585906
vt 0.176558 0.882753
vt 0.417240 0.347622
vt 0.400000 0.442687
vt 0.474954 0.347623
vt 0.497286 0.312709
vt 1.000000 0.000000
vt 0.625000 0.442687
vt 0.375000 0.224136
vt 0.624557 0.585906
vt 0.625000 0.585469
vt 0.625000 0.625000
vt 0.625000 0.625000
vt 0.625000 0.585450
vt 0.600000 0.500470
vt 0.625000 0.500470
vt 0.625000 0.635066
vt 0.600000 0.635059
vt 0.450000 0.500470
vt 0.487500 0.500470
vt 0.487500 0.635059
vt 0.449999 0.635066
vt 0.387609 0.688440
vt 0.449447 0.688440
vt 0.431067 0.630025
vt 0.612245 0.625402
vt 0.387500 0.500470
vt 0.450000 0.500470
vt 0.449999 0.635066
vt 0.387500 0.635066
vt 0.625000 0.625000
vt 0.625000 0.625000
vt 0.625000 0.585460
vt 0.625000 0.585450
vt 0.431067 0.630025
vt 0.418770 0.573130
vt 0.394501 0.829489
vt 0.612245 0.625402
vt 0.394501 0.829489
vt 0.418770 0.573130
vt 0.419446 0.575688
vt 0.573349 0.634055
vt 0.375000 0.585469
vt 0.375000 0.625000
vt 0.375000 0.625000
vt 0.375000 0.585456
vt 0.375000 0.585460
vt 0.375000 0.625000
vt 0.375000 0.625000
vt 0.375000 0.585469
vt 0.648603 0.892034
vt 0.400000 0.688440
vt 0.351397 0.892034
vt 0.351397 0.795466
vt 0.475000 0.688440
vt 0.527404 0.000000
vt 0.625000 0.224136
vt 0.475000 0.442687
vt 0.612498 0.347623
vt 0.063122 0.103749
vt 0.936890 0.103746
vt 0.487824 0.312584
vn -0.121639 -0.992514 0.010928
vn -0.121639 -0.992514 0.010928
vn -0.121639 -0.992514 0.010928
vn -0.121639 -0.992514 0.010928
vn 0.017933 -0.976382 0.215304
vn 0.017933 -0.976382 0.215304
vn 0.017933 -0.976382 0.215304
vn 0.017933 -0.976382 0.215304
vn -0.000005 -0.682094 0.731265
vn -0.000005 -0.682094 0.731265
vn -0.000005 -0.682094 0.731265
vn -0.000005 -0.682094 0.731265
vn -0.000538 -0.887837 0.460157
vn -0.000538 -0.887838 0.460157
vn -0.000538 -0.887837 0.460157
vn -0.000538 -0.887837 0.460157
vn -0.318835 -0.147147 -0.936318
vn -0.318835 -0.147147 -0.936318
vn -0.318835 -0.147147 -0.936318
vn -0.318835 -0.147147 -0.936318
vn -0.994444 -0.105209 0.003459
vn -0.994444 -0.105209 0.003459
vn -0.994444 -0.105209 0.003459
vn -0.994444 -0.105209 0.003459
vn 0.999579 -0.001958 -0.028941
vn 0.999579 -0.001958 -0.028941
vn 0.999579 -0.001958 -0.028941
vn 0.999579 -0.001958 -0.028941
vn 0.998872 0.025775 -0.039891
vn 0.998872 0.025775 -0.039891
vn 0.998872 0.025775 -0.039891
vn 0.998872 0.025775 -0.039891
vn 0.996069 -0.023831 -0.085310
vn 0.996069 -0.023831 -0.085310
vn 0.996069 -0.023831 -0.085310
vn 0.996069 -0.023831 -0.085310
vn 0.993797 -0.080345 -0.076897
vn 0.993797 -0.080345 -0.076897
vn 0.993797 -0.080345 -0.076897
vn 0.993797 -0.080345 -0.076897
vn -0.932460 0.073936 -0.353626
vn -0.932460 0.073936 -0.353626
vn -0.932460 0.073936 -0.353626
vn -0.932460 0.073936 -0.353626
vn -0.848212 0.463346 -0.256606
vn -0.848212 0.463346 -0.256606
vn -0.848212 0.463346 -0.256606
vn -0.848212 0.463346 -0.256606
vn -0.757820 0.647089 -0.083575
vn -0.757820 0.647089 -0.083575
vn -0.757820 0.647089 -0.083575
vn -0.757820 0.647089 -0.083575
vn 0.029781 0.882366 -0.469620
vn 0.029781 0.882366 -0.469620
vn 0.029781 0.882366 -0.469620
vn 0.029781 0.882366 -0.469620
vn 0.034484 0.548073 -0.835719
vn 0.034484 0.548074 -0.835719
vn 0.034484 0.548073 -0.835719
vn 0.034484 0.548074 -0.835719
vn 0.037177 0.163299 -0.985876
vn 0.037177 0.163299 -0.985876
vn 0.037177 0.163299 -0.985876
vn 0.037177 0.163299 -0.985876
vn 0.017383 0.999681 -0.018300
vn 0.017383 0.999681 -0.018300
vn 0.017383 0.999681 -0.018300
vn 0.017383 0.999681 -0.018300
vn -0.106899 -0.994269 -0.001119
vn -0.106899 -0.994269 -0.001119
vn -0.106899 -0.994269 -0.001119
vn -0.106899 -0.994269 -0.001119
vn 0.993868 -0.059178 -0.093407
vn 0.993868 -0.059178 -0.093407
vn 0.993868 -0.059178 -0.093407
vn 0.993868 -0.059178 -0.093407
vn -0.993704 -0.003063 -0.111992
vn -0.993704 -0.003063 -0.111992
vn -0.993704 -0.003063 -0.111992
vn -0.993704 -0.003063 -0.111992
vn -0.984442 0.000000 0.175709
vn -0.984442 0.000000 0.175709
vn -0.984442 0.000000 0.175709
vn -0.984442 0.000000 0.175709
vn 0.881336 -0.000020 0.472490
vn 0.881336 -0.000020 0.472490
vn 0.881336 -0.000020 0.472490
vn 0.881336 -0.000020 0.472490
vn 0.001990 -0.999986 0.004869
vn 0.001990 -0.999986 0.004869
vn 0.001990 -0.999986 0.004869
vn 0.001990 -0.999986 0.004869
vn -0.153126 0.000005 0.988207
vn -0.153126 0.000005 0.988207
vn -0.153126 0.000005 0.988207
vn -0.153126 0.000005 0.988207
vn -0.953063 -0.004214 -0.302744
vn -0.953063 -0.004214 -0.302744
vn -0.953063 -0.004214 -0.302744
vn -0.953063 -0.004214 -0.302744
vn 0.008979 -0.999928 -0.007982
vn 0.008979 -0.999928 -0.007982
vn 0.008979 -0.999928 -0.007982
vn 0.008979 -0.999928 -0.007982
vn 0.005038 -0.999959 0.007464
vn 0.005038 -0.999959 0.007464
vn 0.005038 -0.999959 0.007464
vn 0.005038 -0.999959 0.007464
vn 0.997028 -0.003165 0.076971
vn 0.997028 -0.003165 0.076971
vn 0.997028 -0.003165 0.076971
vn 0.997028 -0.003165 0.076971
vn 0.998470 -0.000411 0.055302
vn 0.998470 -0.000411 0.055302
vn 0.998470 -0.000411 0.055302
vn 0.998470 -0.000411 0.055302
vn 0.806040 -0.133392 -0.576633
vn 0.806040 -0.133392 -0.576633
vn 0.806040 -0.133392 -0.576633
vn 0.806040 -0.133392 -0.576633
vn -0.981144 0.021019 0.192131
vn -0.981144 0.021019 0.192131
vn -0.981144 0.021019 0.192131
vn -0.981144 0.021019 0.192131
vn -0.999566 -0.011566 -0.027089
vn -0.999566 -0.011566 -0.027089
vn -0.999566 -0.011566 -0.027089
vn -0.999566 -0.011566 -0.027089
vn -0.001878 0.999995 0.002526
vn -0.001878 0.999995 0.002526
vn -0.001878 0.999995 0.002526
vn -0.001878 0.999995 0.002526
vn -0.004621 0.999983 0.003541
vn -0.004621 0.999983 0.003541
vn -0.004621 0.999983 0.003541
vn -0.004621 0.999983 0.003541
vn 0.002256 0.580179 0.814486
vn 0.002256 0.580179 0.814486
vn 0.002256 0.580179 0.814486
vn 0.002256 0.580179 0.814486
vn -0.000005 0.682094 0.731264
vn -0.000005 0.682094 0.731264
vn -0.000005 0.682094 0.731264
vn -0.000005 0.682094 0.731264
vn -0.000538 0.887837 0.460157
vn -0.000538 0.887837 0.460157
vn -0.000538 0.887837 0.460157
vn -0.000538 0.887837 0.460157
vn -0.306733 -0.006729 -0.951772
vn -0.306733 -0.006729 -0.951772
vn -0.306732 -0.006729 -0.951772
vn -0.306733 -0.006729 -0.951772
vn 0.999579 0.001958 -0.028941
vn 0.999579 0.001958 -0.028941
vn 0.999579 0.001958 -0.028941
vn 0.999579 0.001958 -0.028941
vn 0.998872 -0.025775 -0.039891
vn 0.998872 -0.025775 -0.039891
vn 0.998872 -0.025775 -0.039891
vn 0.998872 -0.025775 -0.039891
vn 0.996069 0.023831 -0.085310
vn 0.996069 0.023831 -0.085310
vn 0.996069 0.023831 -0.085310
vn 0.996069 0.023831 -0.085310
vn 0.991225 -0.111802 -0.070525
vn 0.991225 -0.111802 -0.070525
vn 0.991225 -0.111802 -0.070525
vn 0.991225 -0.111802 -0.070525
vn -0.956948 -0.257012 0.134893
vn -0.956948 -0.257012 0.134893
vn -0.956948 -0.257012 0.134893
vn -0.956948 -0.257012 0.134893
vn -0.932460 -0.073936 -0.353626
vn -0.932460 -0.073936 -0.353626
vn -0.932460 -0.073936 -0.353626
vn -0.932460 -0.073936 -0.353626
vn -0.848212 -0.463346 -0.256606
vn -0.848212 -0.463346 -0.256606
vn -0.848212 -0.463346 -0.256606
vn -0.848212 -0.463346 -0.256606
vn -0.757820 -0.647089 -0.083575
vn -0.757820 -0.647089 -0.083575
vn -0.757820 -0.647089 -0.083575
vn -0.757820 -0.647089 -0.083575
vn -0.989257 -0.145487 -0.014274
vn -0.989257 -0.145487 -0.014274
vn -0.989257 -0.145487 -0.014274
vn -0.989257 -0.145487 -0.014274
vn 0.979753 -0.174730 -0.097738
vn 0.979753 -0.174730 -0.097738
vn 0.979753 -0.174730 -0.097738
vn 0.979753 -0.174730 -0.097738
vn 0.039104 -0.998845 -0.027913
vn 0.039104 -0.998845 -0.027913
vn 0.039104 -0.998845 -0.027913
vn 0.039104 -0.998845 -0.027913
vn 0.029781 -0.882367 -0.469619
vn 0.029781 -0.882367 -0.469619
vn 0.029781 -0.882367 -0.469619
vn 0.029781 -0.882367 -0.469619
vn 0.034484 -0.548074 -0.835719
vn 0.034484 -0.548074 -0.835719
vn 0.034484 -0.548074 -0.835719
vn 0.034484 -0.548074 -0.835719
vn 0.037177 -0.163299 -0.985876
vn 0.037177 -0.163299 -0.985876
vn 0.037177 -0.163299 -0.985876
vn 0.037177 -0.163299 -0.985876
vn 0.019545 -0.999779 -0.007787
vn 0.019545 -0.999779 -0.007787
vn 0.019545 -0.999779 -0.007787
vn 0.019545 -0.999779 -0.007787
vn -0.005607 0.999976 -0.004191
vn -0.005607 0.999976 -0.004191
vn -0.005607 0.999976 -0.004191
vn -0.005607 0.999976 -0.004191
vn 0.936413 -0.085858 -0.340234
vn 0.936413 -0.085858 -0.340234
vn 0.936413 -0.085858 -0.340234
vn 0.936413 -0.085858 -0.340234
vn -0.993704 0.003063 -0.111992
vn -0.993704 0.003063 -0.111992
vn -0.993704 0.003063 -0.111992
vn -0.993704 0.003063 -0.111992
vn -0.984442 0.000000 0.175709
vn -0.984442 0.000000 0.175709
vn -0.984442 0.000000 0.175709
vn -0.984442 0.000000 0.175709
vn 0.881336 0.000020 0.472490
vn 0.881336 0.000020 0.472490
vn 0.881336 0.000020 0.472490
vn 0.881336 0.000020 0.472490
vn 0.001991 0.999986 0.004869
vn 0.001991 0.999986 0.004869
vn 0.001991 0.999986 0.004869
vn 0.001991 0.999986 0.004869
vn -0.153126 -0.000005 0.988207
vn -0.153126 -0.000005 0.988207
vn -0.153126 -0.000005 0.988207
vn -0.153126 -0.000005 0.988207
vn -0.953063 0.004214 -0.302744
vn -0.953063 0.004214 -0.302744
vn -0.953063 0.004214 -0.302744
vn -0.953063 0.004214 -0.302744
vn 0.008979 0.999928 -0.007982
vn 0.008979 0.999928 -0.007982
vn 0.008979 0.999928 -0.007982
vn 0.008979 0.999928 -0.007982
vn 0.005038 0.999959 0.007464
vn 0.005038 0.999959 0.007464
vn 0.005038 0.999959 0.007464
vn 0.005038 0.999959 0.007464
vn 0.997028 0.003165 0.076971
vn 0.997028 0.003165 0.076971
vn 0.997028 0.003165 0.076971
vn 0.997028 0.003165 0.076971
vn 0.998470 0.000411 0.055302
vn 0.998470 0.000411 0.055302
vn 0.998470 0.000411 0.055302
vn 0.998470 0.000411 0.055302
vn 0.000000 1.000000 0.000000
vn 0.000000 1.000000 0.000000
vn 0.000000 1.000000 0.000000
vn 0.000000 1.000000 0.000000
vn -0.986377 -0.112843 0.119692
vn -0.986377 -0.112843 0.119692
vn -0.986377 -0.112843 0.119692
vn -0.986377 -0.112843 0.119692
vn -0.007355 -0.178798 0.983858
vn -0.007355 -0.178798 0.983858
vn -0.007355 -0.178798 0.983858
vn -0.007355 -0.178798 0.983858
s 1
g r_8:Mesh
usemtl initialShadingGroup
f 124/1/1 123/2/2 136/4/3
f 136/4/3 123/2/2 120/3/4
s 2
f 122/6/5 121/7/6 126/5/7
f 126/5/7 121/7/6 125/8/8
s 3
f 105/10/9 104/11/10 138/9/11
f 138/9/11 104/11/10 137/12/12
s 4
f 106/14/13 105/15/14 139/13/15
f 139/13/15 105/15/14 138/16/16
s 5
f 5/18/17 118/19/18 151/17/19
f 151/17/19 118/19/18 152/20/20
s 6
f 119/21/21 16/22/22 117/24/23
f 117/24/23 16/22/22 115/23/24
s 7
f 71/25/25 30/26/26 81/28/27
f 81/28/27 30/26/26 82/27/28
s 8
f 83/29/29 82/30/30 9/32/31
f 9/32/31 82/30/30 30/31/32
s 9
f 142/34/33 83/35/34 8/33/35
f 8/33/35 83/35/34 9/36/36
s 10
f 2/38/37 142/39/38 4/37/39
f 4/37/39 142/39/38 8/40/40
s 11
f 107/42/41 12/43/42 108/41/43
f 108/41/43 12/43/42 74/44/44
s 12
f 12/45/45 107/46/46 34/48/47
f 34/48/47 107/46/46 109/47/48
s 13
f 116/49/49 33/50/50 109/52/51
f 109/52/51 33/50/50 34/51/52
s 14
f 37/54/53 36/55/54 18/53/55
f 18/53/55 36/55/54 14/56/56
s 15
f 18/57/57 15/58/58 37/60/59
f 37/60/59 15/58/58 38/59/60
s 16
f 15/61/61 73/62/62 38/64/63
f 38/64/63 73/62/62 72/63/64
s 17
f 14/66/65 36/67/66 1/65/67
f 1/65/67 36/67/66 70/68/68
s 18
f 121/69/69 120/70/70 125/72/71
f 125/72/71 120/70/70 123/71/72
s 19
f 2/73/73 6/74/74 142/76/75
f 142/76/75 6/74/74 140/75/76
s 20
f 102/78/77 75/79/78 12/77/79
f 12/77/79 75/79/78 74/80/80
s 21
f 103/82/81 132/83/82 76/81/83
f 76/81/83 132/83/82 77/84/84
s 22
f 78/85/85 134/86/86 79/88/87
f 79/88/87 134/86/86 133/87/88
s 23
f 35/90/89 29/91/90 24/89/91
f 24/89/91 29/91/90 28/92/92
s 24
f 132/93/93 134/94/94 77/96/95
f 77/96/95 134/94/94 78/95/96
s 25
f 102/98/97 103/99/98 75/97/99
f 75/97/99 103/99/98 76/100/100
s 26
f 31/101/101 24/102/102 27/104/103
f 27/104/103 24/102/102 28/103/104
s 27
f 139/105/105 31/106/106 106/108/107
f 106/108/107 31/106/106 27/107/108
s 28
f 30/110/109 71/111/110 135/109/111
f 135/109/111 71/111/110 80/112/112
s 29
f 133/113/113 135/114/114 79/116/115
f 79/116/115 135/114/114 80/115/116
s 30
f 141/118/117 140/119/118 39/117/119
f 39/117/119 140/119/118 6/120/120
s 31
f 115/122/121 16/123/122 116/121/123
f 116/121/123 16/123/122 3/124/124
s 32
f 7/125/125 33/126/126 3/128/127
f 3/128/127 33/126/126 116/127/128
s 33
f 96/129/129 91/130/130 97/132/131
f 97/132/131 91/130/130 89/131/132
s 34
f 90/133/133 98/134/134 89/136/135
f 89/136/135 98/134/134 97/135/136
s 35
f 96/138/137 94/139/138 91/137/139
f 91/137/139 94/139/138 92/140/140
s 36
f 92/141/141 94/142/142 93/144/143
f 93/144/143 94/142/142 95/143/144
s 37
f 93/145/145 95/146/146 127/148/147
f 127/148/147 95/146/146 99/147/148
s 38
f 149/150/149 148/151/150 150/149/151
f 150/149/151 148/151/150 147/152/152
s 39
f 10/153/153 84/154/154 47/156/155
f 47/156/155 84/154/154 86/155/156
s 40
f 85/157/157 50/158/158 86/160/159
f 86/160/159 50/158/158 47/159/160
s 41
f 50/162/161 85/163/162 52/161/163
f 52/161/163 85/163/162 88/164/164
s 42
f 53/166/165 68/167/166 88/165/167
f 88/165/167 68/167/166 52/168/168
s 43
f 42/169/169 69/170/170 113/172/171
f 113/172/171 69/170/170 114/171/172
s 44
f 11/174/173 46/175/174 110/173/175
f 110/173/175 46/175/174 111/176/176
s 45
f 46/177/177 45/178/178 111/180/179
f 111/180/179 45/178/178 112/179/180
s 46
f 113/181/181 112/182/182 44/184/183
f 44/184/183 112/182/182 45/183/184
s 47
f 44/185/185 43/186/186 113/188/187
f 113/188/187 43/186/186 42/187/188
s 48
f 67/190/189 53/191/190 87/189/191
f 87/189/191 53/191/190 88/192/192
s 49
f 58/194/193 59/195/194 51/193/195
f 51/193/195 59/195/194 55/196/196
s 50
f 51/198/197 55/199/198 49/197/199
f 49/197/199 55/199/198 56/200/200
s 51
f 49/201/201 56/202/202 48/204/203
f 48/204/203 56/202/202 57/203/204
s 52
f 48/205/205 57/206/206 17/208/207
f 17/208/207 57/206/206 13/207/208
s 53
f 60/209/209 54/210/210 58/212/211
f 58/212/211 54/210/210 59/211/212
s 54
f 40/214/213 41/215/214 90/213/215
f 90/213/215 41/215/214 98/216/216
s 55
f 143/218/217 67/219/218 146/217/219
f 146/217/219 67/219/218 87/220/220
s 56
f 11/222/221 26/223/222 46/221/223
f 46/221/223 26/223/222 65/224/224
s 57
f 22/226/225 131/227/226 23/225/227
f 23/225/227 131/227/226 61/228/228
s 58
f 25/229/229 21/230/230 130/232/231
f 130/232/231 21/230/230 64/231/232
s 59
f 62/234/233 129/235/234 63/233/235
f 63/233/235 129/235/234 101/236/236
s 60
f 22/237/237 25/238/238 131/240/239
f 131/240/239 25/238/238 130/239/240
s 61
f 23/242/241 61/243/242 26/241/243
f 26/241/243 61/243/242 65/244/244
s 62
f 128/246/245 100/247/246 129/245/247
f 129/245/247 100/247/246 101/248/248
s 63
f 100/249/249 128/250/250 99/252/251
f 99/252/251 128/250/250 127/251/252
s 64
f 32/254/253 10/255/254 66/253/255
f 66/253/255 10/255/254 47/256/256
s 65
f 64/257/257 21/258/258 66/260/259
f 66/260/259 21/258/258 32/259/260
s 66
f 70/261/261 20/262/262 1/264/263
f 1/264/263 20/262/262 19/263/264
s 67
f 114/266/265 69/267/266 145/265/267
f 145/265/267 69/267/266 144/268/268
s 68
f 136/269/269 137/270/270 124/272/271
f 124/272/271 137/270/270 104/271/272
