# This file uses centimeters as units for non-parametric coordinates.

mtllib r_3.mtl
g default
v 2.126935 3.479150 77.243912
v 5.039107 3.973830 61.597187
v 10.479132 4.248058 64.311981
v 9.644482 0.000000 77.300003
v 9.939534 5.311042 68.810196
v 5.039107 5.323710 67.413277
v 2.146679 5.311228 67.417328
v -5.544793 3.612929 67.437050
v 0.944632 0.000000 61.128986
v 5.039107 0.000000 61.136436
v 11.859583 0.000000 62.827148
v 14.506551 0.000000 67.996124
v 5.039107 0.000000 77.300003
v 2.126935 0.000000 77.300003
v -0.948606 0.000000 77.300003
v -5.822042 0.000000 67.436806
v 9.644482 3.479150 77.243912
v 12.260711 0.000000 66.410294
v 0.944632 4.049587 61.397552
v 13.949208 3.582411 66.829330
v 13.961819 0.000000 66.562271
v 5.039107 3.479150 77.243912
v -5.587774 0.000000 74.720406
v -3.778899 3.568414 75.702530
v -4.986703 4.063651 62.331371
v -4.963721 0.000000 61.913593
v 13.926511 0.000000 77.363640
v 13.926511 3.541585 77.228477
v 5.039107 -3.973830 61.597187
v 10.479132 -4.248058 64.311981
v -5.773821 -2.665610 67.437050
v 9.939534 -5.311042 68.810196
v 14.003305 -4.147087 69.360016
v -1.184845 -5.290182 67.487755
v 2.146679 -5.311228 67.417328
v 5.039107 -5.323710 67.413277
v 0.944632 -4.049587 61.333183
v 13.949208 -3.582411 66.829330
v 2.126935 -3.479150 77.243912
v 5.039107 -3.479150 77.243912
v 9.644482 -3.479150 77.243912
v 10.509005 -4.683380 66.679565
v 13.926511 -3.541585 77.228477
v -5.238473 -2.978705 63.120792
v -3.778899 -3.568414 75.702530
v 0.171972 0.000000 61.136517
v -1.132453 4.203542 61.317493
v -1.184845 5.290182 67.487755
v -1.044872 3.646613 77.243912
v -1.044872 -3.646613 77.243912
v -1.089381 -4.087271 61.329765
v 13.945712 3.576122 68.431190
v 5.039107 -4.785609 65.094818
v 1.647012 -4.786789 64.888275
v -1.144589 -4.782919 64.890953
v -5.530208 -1.838990 64.784874
v -5.470273 0.000000 65.173203
v -5.360075 3.762110 65.747154
v -1.166454 4.908750 65.321877
v 1.619396 4.875118 65.415436
v 2.126935 3.479150 77.243912
v -1.044872 3.646613 77.243912
v -1.044872 -3.646613 77.243912
v 2.126935 -3.479150 77.243912
v 5.039107 -3.479150 77.243912
v 9.644482 -3.479150 77.243912
v 9.644482 3.479150 77.243912
v 5.039107 3.479150 77.243912
v -3.778899 3.568414 75.702530
v -5.544793 3.612929 67.437050
v -5.360075 3.762110 65.747154
v -3.778899 -3.568414 75.702530
v -5.773821 -2.665610 67.437050
v -5.530208 -1.838990 64.784874
v -1.089381 -4.087271 61.329765
v -5.238473 -2.978705 63.120792
v 0.944632 -4.049587 61.333183
v 5.039107 -3.973830 61.597187
v -1.132453 4.203542 61.317493
v 0.944632 4.049587 61.397552
v 5.039107 3.973830 61.597187
v -4.986703 4.063651 62.331371
v 12.260711 0.000000 66.410294
v -5.530208 -1.838990 64.784874
v -1.144589 -4.782919 64.890953
v 1.647012 -4.786789 64.888275
v 5.039107 -4.785609 65.094818
v 10.509005 -4.683380 66.679565
v 10.808675 4.587210 66.798042
v 5.039107 4.837689 65.319206
v 1.744401 4.889006 65.402740
v -1.166454 4.908750 65.321877
v -5.360075 3.762110 65.747154
v 1.619396 4.875118 65.415436
v -5.360075 3.762110 65.747154
v -5.470273 0.000000 65.173203
v -5.530208 -1.838990 64.784874
v 14.506551 0.000000 67.996124
v 13.961819 0.000000 66.562271
v 12.260711 0.000000 66.410294
v 13.926511 0.000000 77.363640
v 9.644482 0.000000 77.300003
v 5.039107 0.000000 77.300003
v 2.126935 0.000000 77.300003
v -0.948606 0.000000 77.300003
v -5.587774 0.000000 74.720406
v -5.822042 0.000000 67.436806
v -5.470273 0.000000 65.173203
v 14.003305 -4.147087 69.360016
v 13.926511 -3.541585 77.228477
v 13.945712 3.576122 68.431190
v 13.926511 3.541585 77.228477
v 13.961819 0.000000 66.562271
v 13.949208 3.582411 66.829330
v 13.949208 -3.582411 66.829330
v 13.961819 0.000000 66.562271
v 13.949208 3.582411 66.829330
v 5.039107 3.479150 77.243912
v 10.509005 -4.683380 66.679565
v 13.949208 -3.582411 66.829330
vt 0.562500 0.500000
vt 0.875000 0.250000
vt 0.625000 0.562500
vt 0.562500 0.562500
vt 0.875000 0.187500
vt 0.875000 0.250000
vt 0.875000 0.187500
vt 0.375000 0.562500
vt 0.375000 0.500000
vt 0.437500 0.500000
vt 0.437500 0.562500
vt 0.000000 0.000000
vt 1.000000 0.000000
vt 1.000000 1.000000
vt 0.000000 1.000000
vt 1.000000 0.406391
vt 0.003348 0.150690
vt 0.000000 0.000000
vt 1.000000 0.000000
vt 0.000000 0.000000
vt 1.000000 0.000000
vt 1.000000 1.000000
vt 0.000000 1.000000
vt 0.000210 0.000060
vt 1.000000 0.000000
vt 1.000000 1.000000
vt 0.000210 0.999805
vt 0.519408 0.517692
vt 0.519408 0.148402
vt 0.773402 0.224601
vt 0.693776 0.292526
vt 0.562500 0.187500
vt 0.625060 0.187515
vt 0.511418 0.386701
vt 0.500000 0.187500
vt 0.000000 0.000000
vt 1.000000 0.000000
vt 1.000000 1.000000
vt 0.000000 1.000000
vt 0.000000 0.000000
vt 1.000000 0.000000
vt 1.000000 1.000000
vt 0.000000 1.000000
vt 0.437500 0.386701
vt 0.379016 0.368151
vt 0.384881 0.187500
vt 0.437500 0.187500
vt 0.437500 0.187500
vt 0.665142 0.382368
vt 0.637103 0.182029
vt 0.807029 0.233008
vt 0.757389 0.277599
vt 0.535381 0.420909
vt 0.528513 0.424618
vt 0.437500 0.427494
vt 1.000000 1.000000
vt 0.000000 0.000000
vt 0.021735 0.978265
vt 1.000000 1.000000
vt 0.000000 1.000000
vt 0.000000 0.000000
vt 1.000000 0.000000
vt 1.000000 0.978265
vt 0.000000 0.978265
vt 0.773402 0.224601
vt 0.625060 0.187515
vt 0.562500 0.187500
vt 0.693776 0.292526
vt 0.500000 0.187500
vt 0.511418 0.386701
vt 0.437500 0.386701
vt 0.437500 0.187500
vt 0.384881 0.187500
vt 0.379016 0.368151
vt 0.832578 0.239395
vt 0.664773 0.380017
vt 0.532652 0.433797
vt 0.437500 0.431865
vt 0.377008 0.434076
vt 0.000000 0.000000
vt 0.000000 0.406391
vt 1.000000 0.406391
vt 1.000000 0.000000
vt 0.021735 0.978265
vt 1.000000 1.000000
vt 0.000000 0.000000
vt 0.000000 1.000000
vt 1.000000 1.000000
vt 1.000000 0.000000
vt 0.000000 0.000000
vt 0.000000 1.000000
vt 1.000000 1.000000
vt 1.000000 0.000000
vt 0.000000 0.000000
vt 0.000000 1.000000
vt 1.000000 1.000000
vt 1.000000 0.000000
vt 0.000210 0.000060
vt 0.000210 0.999805
vt 1.000000 1.000000
vt 1.000000 0.000000
vt 0.519408 0.148402
vt 0.519408 0.517692
vt 0.726523 0.207578
vt 0.665142 0.382368
vt 0.875000 0.187500
vt 0.875000 0.187500
vt 0.875000 0.250000
vt 0.625000 0.500000
vt 0.562500 0.500000
vt 0.562500 0.562500
vt 0.625000 0.562500
vt 0.437500 0.500000
vt 0.437500 0.562500
vt 0.375000 0.562500
vt 0.375000 0.500000
vt 0.000000 1.000000
vt 1.000000 1.000000
vt 1.000000 0.000000
vt 0.000000 0.000000
vt 0.000000 1.000000
vt 0.000000 0.000000
vt 0.986415 0.983698
vt 1.000000 0.406391
vt 0.156412 0.126997
vt 1.000000 0.978265
vt 0.789103 0.531749
vt 1.000000 0.978265
vt 1.000000 0.000000
vt 0.000000 0.000000
vt 0.000000 0.978265
vt 0.156412 0.126997
vt 0.997907 0.151527
vt 0.986415 0.983698
vt 1.000000 0.000000
vt 0.437500 0.500000
vt 0.437500 0.431865
vt 0.377008 0.434076
vt 0.562500 0.500000
vt 0.532652 0.433797
vt 0.437500 0.431865
vt 0.437500 0.500000
vt 0.625000 0.500000
vt 0.664773 0.380017
vt 0.532652 0.433797
vt 0.562500 0.500000
vt 0.875000 0.250000
vt 0.832578 0.239395
vt 0.664773 0.380017
vt 0.625000 0.500000
vt 0.665142 0.382368
vt 0.726523 0.207578
vt 0.637103 0.182029
vt 0.665142 0.382368
vt 0.875000 0.250000
vt 0.875000 0.250000
vt 0.757389 0.277599
vt 0.807029 0.233008
vt 0.875000 0.250000
vt 0.562500 0.500000
vt 0.535381 0.420909
vt 0.757389 0.277599
vt 0.562500 0.500000
vt 0.437500 0.500000
vt 1.000000 0.000000
vt 0.437500 0.500000
vn -0.028574 -0.058869 0.997857
vn -0.028574 -0.058869 0.997857
vn -0.028574 -0.058869 0.997857
vn -0.028574 -0.058869 0.997857
vn 0.195817 -0.039525 0.979844
vn 0.195817 -0.039525 0.979844
vn 0.195817 -0.039525 0.979844
vn 0.195817 -0.039525 0.979844
vn -0.320387 -0.268744 0.908366
vn -0.320387 -0.268744 0.908366
vn -0.320387 -0.268744 0.908366
vn -0.320387 -0.268744 0.908366
vn -0.935657 -0.327715 0.130956
vn -0.935657 -0.327715 0.130956
vn -0.935657 -0.327715 0.130956
vn -0.935657 -0.327715 0.130956
vn -0.979998 -0.095623 0.174526
vn -0.979998 -0.095623 0.174526
vn -0.979998 -0.095623 0.174526
vn -0.979998 -0.095623 0.174526
vn -0.000422 -0.015747 -0.999876
vn -0.000422 -0.015747 -0.999876
vn -0.000422 -0.015747 -0.999876
vn -0.000422 -0.015747 -0.999876
vn 0.487906 -0.003780 -0.872888
vn 0.487906 -0.003780 -0.872888
vn 0.487906 -0.003780 -0.872888
vn 0.487906 -0.003780 -0.872888
vn 0.957316 -0.261144 -0.123892
vn 0.957316 -0.261144 -0.123892
vn 0.957316 -0.261144 -0.123892
vn 0.957316 -0.261144 -0.123892
vn 0.263323 -0.957521 -0.117538
vn 0.263323 -0.957521 -0.117538
vn 0.263323 -0.957521 -0.117538
vn 0.263323 -0.957521 -0.117538
vn -0.026014 -0.090495 0.995557
vn -0.026014 -0.090495 0.995557
vn -0.026014 -0.090495 0.995557
vn -0.026014 -0.090495 0.995557
vn -0.024052 -0.984353 -0.174560
vn -0.024052 -0.984353 -0.174560
vn -0.024052 -0.984353 -0.174560
vn -0.024052 -0.984353 -0.174560
vn 0.000000 -0.016120 -0.999870
vn 0.000000 -0.016120 -0.999870
vn 0.000000 -0.016120 -0.999870
vn 0.000000 -0.016120 -0.999870
vn 0.000000 -0.016120 -0.999870
vn 0.000000 -0.016120 -0.999870
vn 0.000000 -0.016120 -0.999870
vn 0.000000 -0.016120 -0.999870
vn 0.027619 -0.980049 -0.196829
vn 0.027619 -0.980049 -0.196829
vn 0.027619 -0.980049 -0.196829
vn 0.027619 -0.980049 -0.196829
vn 0.001985 -0.982953 -0.183847
vn 0.001985 -0.982953 -0.183847
vn 0.001985 -0.982953 -0.183847
vn 0.001985 -0.982953 -0.183847
vn 0.989307 -0.062242 0.131899
vn 0.989307 -0.062242 0.131899
vn 0.989307 -0.062242 0.131899
vn 0.989307 -0.062242 0.131899
vn 0.315554 -0.946049 0.073607
vn 0.315554 -0.946048 0.073607
vn 0.315554 -0.946048 0.073607
vn 0.315554 -0.946048 0.073607
vn -0.000177 -0.981283 0.192573
vn -0.000177 -0.981283 0.192573
vn -0.000177 -0.981283 0.192573
vn -0.000177 -0.981283 0.192573
vn -0.000177 -0.981283 0.192573
vn -0.003069 -0.976360 0.216130
vn -0.003069 -0.976360 0.216130
vn -0.003069 -0.976360 0.216130
vn -0.003069 -0.976360 0.216130
vn -0.094536 -0.960181 0.262897
vn -0.094536 -0.960181 0.262897
vn -0.094536 -0.960181 0.262897
vn -0.094536 -0.960181 0.262897
vn 0.005825 -0.027231 -0.999612
vn 0.005825 -0.027231 -0.999612
vn 0.005825 -0.027231 -0.999612
vn 0.005825 -0.027231 -0.999612
vn -0.056271 -0.089789 0.994370
vn -0.056271 -0.089789 0.994370
vn -0.056271 -0.089789 0.994370
vn -0.056271 -0.089789 0.994370
vn 0.360548 0.929225 -0.080907
vn 0.360548 0.929225 -0.080907
vn 0.360548 0.929225 -0.080907
vn 0.360548 0.929225 -0.080907
vn -0.024052 0.984353 -0.174560
vn -0.024052 0.984353 -0.174560
vn -0.024052 0.984353 -0.174560
vn -0.024052 0.984353 -0.174560
vn 0.027619 0.980049 -0.196829
vn 0.027619 0.980049 -0.196829
vn 0.027619 0.980049 -0.196829
vn 0.027619 0.980049 -0.196829
vn 0.001986 0.982953 -0.183847
vn 0.001986 0.982953 -0.183847
vn 0.001986 0.982953 -0.183847
vn 0.001986 0.982953 -0.183847
vn 0.509111 0.827214 0.237747
vn 0.509111 0.827214 0.237747
vn 0.509111 0.827214 0.237747
vn 0.509111 0.827214 0.237747
vn 0.006339 0.980430 0.196767
vn 0.006339 0.980430 0.196767
vn 0.006339 0.980430 0.196767
vn 0.006339 0.980430 0.196767
vn -0.005158 0.976685 0.214614
vn -0.005158 0.976685 0.214614
vn -0.005158 0.976685 0.214614
vn -0.005158 0.976685 0.214614
vn -0.080572 0.966680 0.242979
vn -0.080572 0.966680 0.242979
vn -0.080572 0.966680 0.242979
vn -0.080572 0.966680 0.242979
vn -0.981650 0.099800 0.162490
vn -0.981650 0.099800 0.162490
vn -0.981650 0.099800 0.162490
vn -0.981650 0.099800 0.162490
vn -0.997460 0.058881 -0.040080
vn -0.997460 0.058881 -0.040080
vn -0.997460 0.058881 -0.040080
vn -0.997460 0.058881 -0.040080
vn 0.000000 0.016120 -0.999870
vn 0.000000 0.016120 -0.999870
vn 0.000000 0.016120 -0.999870
vn 0.000000 0.016120 -0.999870
vn 0.000000 0.016120 -0.999870
vn 0.000000 0.016120 -0.999870
vn 0.000000 0.016120 -0.999870
vn 0.000000 0.016120 -0.999870
vn -0.000423 0.015747 -0.999876
vn -0.000423 0.015747 -0.999876
vn -0.000423 0.015747 -0.999876
vn -0.000423 0.015747 -0.999876
vn 0.487907 0.003780 -0.872887
vn 0.487907 0.003780 -0.872888
vn 0.487907 0.003780 -0.872887
vn 0.487907 0.003780 -0.872888
vn 0.956342 0.265717 -0.121678
vn 0.956342 0.265717 -0.121678
vn 0.956342 0.265717 -0.121678
vn 0.956342 0.265717 -0.121678
vn 0.992918 -0.012758 0.118113
vn 0.992918 -0.012758 0.118113
vn 0.992918 -0.012758 0.118113
vn 0.992918 -0.012758 0.118113
vn 0.278566 0.128092 0.951837
vn 0.278566 0.128092 0.951837
vn 0.278566 0.128092 0.951837
vn 0.278566 0.128092 0.951837
vn 0.000806 0.048662 0.998815
vn 0.000806 0.048662 0.998815
vn 0.000806 0.048662 0.998815
vn 0.000806 0.048662 0.998815
vn -0.033780 0.082546 0.996015
vn -0.033780 0.082546 0.996015
vn -0.033780 0.082546 0.996015
vn -0.033780 0.082546 0.996015
vn -0.320387 0.268744 0.908366
vn -0.320387 0.268744 0.908366
vn -0.320387 0.268744 0.908366
vn -0.320387 0.268744 0.908366
vn -0.933734 0.345698 0.092918
vn -0.933734 0.345698 0.092918
vn -0.933734 0.345698 0.092918
vn -0.933734 0.345698 0.092918
vn 0.005825 0.027231 -0.999612
vn 0.005825 0.027231 -0.999612
vn 0.005825 0.027231 -0.999612
vn 0.005825 0.027231 -0.999612
vn -0.119967 0.981460 -0.149478
vn -0.119967 0.981460 -0.149478
vn -0.119967 0.981460 -0.149478
vn -0.119967 0.981460 -0.149478
vn -0.300286 0.931542 0.205082
vn -0.300286 0.931542 0.205082
vn -0.300286 0.931542 0.205082
vn -0.300286 0.931542 0.205082
vn -0.075594 0.080624 0.993874
vn -0.075594 0.080624 0.993874
vn -0.075594 0.080624 0.993874
vn -0.075594 0.080624 0.993874
vn -0.996475 -0.077125 -0.033019
vn -0.996475 -0.077125 -0.033019
vn -0.996475 -0.077125 -0.033019
vn -0.996475 -0.077125 -0.033019
vn -0.201610 -0.973370 -0.109110
vn -0.201610 -0.973370 -0.109110
vn -0.201610 -0.973370 -0.109110
vn -0.201610 -0.973370 -0.109110
vn -0.351929 -0.930690 0.099808
vn -0.351929 -0.930690 0.099808
vn -0.351929 -0.930690 0.099808
vn -0.351929 -0.930690 0.099808
vn -0.066524 0.975898 0.207841
vn -0.066524 0.975898 0.207841
vn -0.066524 0.975898 0.207841
vn -0.066524 0.975898 0.207841
vn -0.023650 0.975951 0.216702
vn -0.023650 0.975951 0.216702
vn -0.023650 0.975951 0.216702
vn -0.023650 0.975951 0.216702
vn -0.006899 0.980181 0.197985
vn -0.006899 0.980181 0.197985
vn -0.006899 0.980181 0.197985
vn -0.006899 0.980181 0.197985
vn 0.420488 0.905970 -0.049074
vn 0.420488 0.905970 -0.049074
vn 0.420488 0.905970 -0.049074
vn 0.420488 0.905970 -0.049074
vn 0.984838 -0.039715 0.168867
vn 0.984838 -0.039715 0.168867
vn 0.984838 -0.039715 0.168867
vn 0.984838 -0.039715 0.168867
vn 0.991210 -0.027447 0.129418
vn 0.991210 -0.027447 0.129418
vn 0.991210 -0.027447 0.129418
vn 0.991210 -0.027447 0.129418
vn 0.168479 -0.983705 0.062765
vn 0.168479 -0.983705 0.062765
vn 0.168479 -0.983705 0.062765
vn 0.168479 -0.983705 0.062765
vn -0.040247 -0.980870 0.190457
vn -0.040247 -0.980870 0.190457
vn -0.040247 -0.980870 0.190457
vn -0.040247 -0.980870 0.190457
vn -0.040247 -0.980870 0.190457
vn -0.020196 -0.975916 0.217208
vn -0.020196 -0.975916 0.217208
vn -0.020196 -0.975916 0.217208
vn -0.020196 -0.975916 0.217208
vn -0.070267 -0.978607 0.193366
vn -0.070267 -0.978607 0.193366
vn -0.070267 -0.978607 0.193366
vn -0.070267 -0.978607 0.193366
s 1
g r_9:Mesh
usemtl initialShadingGroup
f 79/2/1 46/3/2 80/1/3
f 80/1/3 46/3/2 9/4/4
s 2
f 46/5/5 79/2/6 26/7/7
f 26/7/7 79/2/6 82/6/8
s 3
f 11/8/9 3/9/10 10/11/11
f 10/11/11 3/9/10 81/10/12
s 4
f 11/13/13 83/14/14 3/12/15
f 3/12/15 83/14/14 89/15/16
s 5
f 111/17/17 114/18/18 98/16/19
f 98/16/19 114/18/18 113/19/20
s 6
f 62/20/21 61/21/22 105/23/23
f 105/23/23 61/21/22 104/22/24
s 7
f 62/25/25 105/26/26 69/24/27
f 69/24/27 105/26/26 106/27/28
s 8
f 107/28/29 70/29/30 106/27/31
f 106/27/31 70/29/30 69/24/32
s 9
f 8/30/33 48/31/34 24/33/35
f 24/33/35 48/31/34 49/32/36
s 10
f 80/1/37 9/4/38 81/10/39
f 81/10/39 9/4/38 10/11/40
s 11
f 48/31/41 7/34/42 49/32/43
f 49/32/43 7/34/42 1/35/44
s 12
f 61/36/45 68/37/46 104/39/47
f 104/39/47 68/37/46 103/38/48
s 13
f 68/40/49 67/41/50 103/43/51
f 103/43/51 67/41/50 102/42/52
s 14
f 6/44/53 5/45/54 118/47/55
f 118/47/55 5/45/54 17/46/56
s 15
f 6/44/57 22/48/58 7/34/59
f 7/34/59 22/48/58 1/35/60
s 16
f 108/49/61 95/50/62 107/28/63
f 107/28/63 95/50/62 70/29/64
s 17
f 92/52/65 48/31/66 93/51/67
f 93/51/67 48/31/66 8/30/68
s 18
f 7/34/69 48/31/70 91/54/71
f 91/54/71 48/31/70 94/53/72
f 92/52/73 94/53/72 48/31/70
s 19
f 91/54/74 90/55/75 7/34/76
f 7/34/76 90/55/75 6/44/77
s 20
f 90/55/78 89/56/79 6/44/80
f 6/44/80 89/56/79 5/45/81
s 21
f 112/58/82 101/59/83 67/57/84
f 67/57/84 101/59/83 102/60/85
s 22
f 89/61/86 100/62/87 117/64/88
f 117/64/88 100/62/87 99/63/89
s 23
f 73/65/90 72/66/91 34/68/92
f 34/68/92 72/66/91 50/67/93
s 24
f 34/68/94 50/67/95 35/70/96
f 35/70/96 50/67/95 39/69/97
s 25
f 36/71/98 40/72/99 32/74/100
f 32/74/100 40/72/99 41/73/101
s 26
f 39/69/102 40/72/103 35/70/104
f 35/70/104 40/72/103 36/71/105
s 27
f 84/75/106 73/65/107 85/76/108
f 85/76/108 73/65/107 34/68/109
s 28
f 85/76/110 34/68/111 86/77/112
f 86/77/112 34/68/111 35/70/113
s 29
f 86/77/114 35/70/115 87/78/116
f 87/78/116 35/70/115 36/71/117
s 30
f 87/78/118 36/71/119 119/79/120
f 119/79/120 36/71/119 32/74/121
s 31
f 109/81/122 12/82/123 115/80/124
f 115/80/124 12/82/123 116/83/125
s 32
f 110/84/126 27/85/127 109/81/128
f 109/81/128 27/85/127 12/82/129
s 33
f 65/86/130 13/87/131 66/89/132
f 66/89/132 13/87/131 4/88/133
s 34
f 64/90/134 14/91/135 65/93/136
f 65/93/136 14/91/135 13/92/137
s 35
f 63/94/138 15/95/139 64/97/140
f 64/97/140 15/95/139 14/96/141
s 36
f 23/99/142 15/100/143 45/98/144
f 45/98/144 15/100/143 63/101/145
s 37
f 45/98/146 31/102/147 23/99/148
f 23/99/148 31/102/147 16/103/149
s 38
f 31/102/150 97/104/151 16/103/152
f 16/103/152 97/104/151 96/105/153
s 39
f 46/106/154 26/107/155 75/109/156
f 75/109/156 26/107/155 76/108/157
s 40
f 9/111/158 46/112/159 77/110/160
f 77/110/160 46/112/159 75/109/161
s 41
f 10/114/162 9/111/163 78/113/164
f 78/113/164 9/111/163 77/110/165
s 42
f 11/115/166 10/114/167 30/116/168
f 30/116/168 10/114/167 78/113/169
s 43
f 42/117/170 83/118/171 30/120/172
f 30/120/172 83/118/171 11/119/173
s 44
f 4/121/174 27/85/175 66/122/176
f 66/122/176 27/85/175 110/84/177
s 45
f 43/123/178 33/124/179 41/73/180
f 41/73/180 33/124/179 32/125/181
s 46
f 32/125/182 33/124/183 119/127/184
f 119/127/184 33/124/183 120/126/185
s 47
f 21/128/186 18/129/187 38/131/188
f 38/131/188 18/129/187 88/130/189
s 48
f 112/58/190 111/17/191 101/59/192
f 101/59/192 111/17/191 98/16/193
s 49
f 52/133/194 28/134/195 5/132/196
f 5/132/196 28/134/195 17/46/197
s 50
f 5/45/198 89/56/199 52/133/200
f 52/133/200 89/56/199 20/135/201
s 51
f 29/136/202 53/137/203 30/116/204
f 30/116/204 53/137/203 42/138/205
s 52
f 37/139/206 54/140/207 29/142/208
f 29/142/208 54/140/207 53/141/209
s 53
f 51/143/210 55/144/211 37/146/212
f 37/146/212 55/144/211 54/145/213
s 54
f 74/148/214 55/149/215 44/147/216
f 44/147/216 55/149/215 51/150/217
s 55
f 57/151/218 56/152/219 26/107/220
f 26/107/220 56/152/219 76/108/221
s 56
f 71/153/222 57/154/223 82/6/224
f 82/6/224 57/154/223 26/7/225
s 57
f 47/156/226 59/157/227 25/155/228
f 25/155/228 59/157/227 58/158/229
s 58
f 91/54/230 60/161/231 19/160/232
f 60/161/231 59/162/233 19/160/232
f 47/159/234 19/160/232 59/162/233
s 59
f 19/163/235 2/164/236 91/54/237
f 91/54/237 2/164/236 90/55/238
s 60
f 89/56/239 90/55/240 3/165/241
f 3/165/241 90/55/240 2/166/242
