# This file uses centimeters as units for non-parametric coordinates.

mtllib r_6.mtl
g default
v 47.298813 -2.147983 71.302078
v 47.298813 -1.827184 70.672470
v 47.298813 -1.327526 70.172813
v 47.298813 -0.697922 69.852013
v 47.298813 0.000000 69.741470
v 47.298813 0.697922 69.852013
v 47.298813 1.327526 70.172813
v 47.298813 1.827183 70.672470
v 47.298813 2.147982 71.302078
v 47.298813 2.258522 72.000000
v 47.298813 2.147982 72.697922
v 47.298813 1.827183 73.327530
v 47.298813 1.327526 73.827187
v 47.298813 0.697922 74.147987
v 47.298813 0.000000 74.258522
v 47.298813 -0.697922 74.147987
v 47.298813 -1.327526 73.827187
v 47.298813 -1.827182 73.327530
v 47.298813 -2.147982 72.697922
v 47.298813 -2.258522 72.000000
v 46.305744 -1.816342 73.319649
v 46.305744 -2.135238 72.693779
v 46.305744 -1.319648 73.816345
v 46.305744 -0.693780 74.135239
v 46.305744 0.000000 74.245125
v 46.305744 0.693780 74.135239
v 46.305744 1.319649 73.816345
v 46.305744 1.816343 73.319649
v 46.305744 2.135239 72.693779
v 46.305744 2.245124 72.000000
v 46.305744 2.135239 71.306221
v 46.305744 1.816343 70.680351
v 46.305744 1.319650 70.183655
v 46.305744 0.693781 69.864761
v 46.305744 0.000000 69.754868
v 46.305744 -0.693780 69.864761
v 46.305744 -1.319649 70.183655
v 46.305744 -1.816342 70.680351
v 46.305744 -2.135241 71.306221
v 46.305744 -2.245123 72.000000
v 47.298813 -0.927956 71.325798
v 47.298813 -1.090877 71.645554
v 47.298813 -0.674199 71.072037
v 47.298813 -0.354447 70.909126
v 47.298813 0.000000 70.852982
v 47.298813 0.354448 70.909126
v 47.298813 0.674199 71.072037
v 47.298813 0.927955 71.325798
v 47.298813 1.090877 71.645554
v 47.298813 1.147016 72.000000
v 47.298813 1.090877 72.354446
v 47.298813 0.927955 72.674202
v 47.298813 0.674199 72.927956
v 47.298813 0.354448 73.090874
v 47.298813 0.000000 73.147018
v 47.298813 -0.354447 73.090874
v 47.298813 -0.674199 72.927956
v 47.298813 -0.927955 72.674202
v 47.298813 -1.090877 72.354446
v 47.298813 -1.147015 72.000000
vt 0.626409 0.751908
vt 0.563205 0.797829
vt 0.574301 0.819608
vt 0.648603 0.795466
vt 0.591842 0.717341
vt 0.545921 0.780546
vt 0.548284 0.695147
vt 0.524142 0.769449
vt 0.500000 0.687500
vt 0.500000 0.765625
vt 0.451716 0.695147
vt 0.475858 0.769449
vt 0.408159 0.717341
vt 0.454079 0.780546
vt 0.373591 0.751909
vt 0.436796 0.797829
vt 0.351397 0.795466
vt 0.425699 0.819608
vt 0.343750 0.843750
vt 0.421875 0.843750
vt 0.351397 0.892034
vt 0.425699 0.867892
vt 0.373591 0.935591
vt 0.436796 0.889671
vt 0.408159 0.970159
vt 0.454079 0.906954
vt 0.451716 0.992353
vt 0.475858 0.918051
vt 0.500000 1.000000
vt 0.500000 0.921875
vt 0.548284 0.992353
vt 0.524142 0.918051
vt 0.591841 0.970159
vt 0.545921 0.906954
vt 0.626409 0.935591
vt 0.563204 0.889671
vt 0.648603 0.892034
vt 0.574301 0.867892
vt 0.656250 0.843750
vt 0.578125 0.843750
vt 0.000000 0.000000
vt 0.000000 1.000000
vt 1.000000 1.000000
vt 1.000000 0.000000
vt 1.000000 0.000000
vt 0.000000 0.000000
vt 0.000000 1.000000
vt 1.000000 1.000000
vt 0.000000 0.000000
vt 0.000000 1.000000
vt 1.000000 1.000000
vt 1.000000 0.000000
vt 0.000000 0.000000
vt 0.000000 1.000000
vt 1.000000 1.000000
vt 1.000000 0.000000
vt 0.000000 0.000000
vt 0.000000 1.000000
vt 1.000000 1.000000
vt 1.000000 0.000000
vt 0.000000 0.000000
vt 0.000000 1.000000
vt 1.000000 1.000000
vt 1.000000 0.000000
vt 0.000000 0.000000
vt 0.000000 1.000000
vt 1.000000 1.000000
vt 1.000000 0.000000
vt 0.000000 0.000000
vt 0.000000 1.000000
vt 1.000000 1.000000
vt 1.000000 0.000000
vt 0.000000 0.000000
vt 0.000000 1.000000
vt 1.000000 1.000000
vt 1.000000 0.000000
vt 0.000000 0.000000
vt 0.000000 1.000000
vt 1.000000 1.000000
vt 1.000000 0.000000
vt 0.000000 0.000000
vt 0.000000 1.000000
vt 1.000000 1.000000
vt 1.000000 0.000000
vt 0.000000 0.000000
vt 0.000000 1.000000
vt 1.000000 1.000000
vt 1.000000 0.000000
vt 0.000000 0.000000
vt 0.000000 1.000000
vt 1.000000 1.000000
vt 1.000000 0.000000
vt 0.000000 0.000000
vt 0.000000 1.000000
vt 1.000000 1.000000
vt 1.000000 0.000000
vt 0.000000 0.000000
vt 0.000000 1.000000
vt 1.000000 1.000000
vt 1.000000 0.000000
vt 0.000000 0.000000
vt 0.000000 1.000000
vt 1.000000 1.000000
vt 1.000000 0.000000
vt 1.000000 0.000000
vt 0.000000 0.000000
vt 0.000000 1.000000
vt 1.000000 1.000000
vt 0.000000 0.000000
vt 0.000000 1.000000
vt 1.000000 1.000000
vt 1.000000 0.000000
vt 0.000000 0.000000
vt 0.000000 1.000000
vt 1.000000 1.000000
vt 1.000000 0.000000
vt 0.000000 0.000000
vt 0.000000 1.000000
vt 1.000000 1.000000
vt 1.000000 0.000000
vn 0.013330 0.890928 -0.453949
vn 0.013330 0.890928 -0.453949
vn 0.013330 0.890928 -0.453949
vn 0.013330 0.890928 -0.453949
vn 0.013333 0.707045 -0.707042
vn 0.013333 0.707045 -0.707042
vn 0.013333 0.707045 -0.707042
vn 0.013333 0.707045 -0.707042
vn 0.013330 0.453949 -0.890928
vn 0.013330 0.453949 -0.890928
vn 0.013330 0.453949 -0.890928
vn 0.013330 0.453949 -0.890928
vn 0.013319 0.156418 -0.987601
vn 0.013319 0.156418 -0.987601
vn 0.013319 0.156418 -0.987601
vn 0.013319 0.156418 -0.987601
vn 0.013319 -0.156418 -0.987601
vn 0.013319 -0.156418 -0.987601
vn 0.013319 -0.156418 -0.987601
vn 0.013319 -0.156418 -0.987601
vn 0.013330 -0.453949 -0.890928
vn 0.013330 -0.453949 -0.890928
vn 0.013330 -0.453949 -0.890928
vn 0.013330 -0.453949 -0.890928
vn 0.013335 -0.707045 -0.707043
vn 0.013335 -0.707045 -0.707043
vn 0.013335 -0.707045 -0.707043
vn 0.013335 -0.707045 -0.707043
vn 0.013327 -0.890928 -0.453948
vn 0.013327 -0.890928 -0.453948
vn 0.013327 -0.890928 -0.453948
vn 0.013327 -0.890928 -0.453948
vn 0.013324 -0.987601 -0.156421
vn 0.013324 -0.987601 -0.156421
vn 0.013324 -0.987601 -0.156421
vn 0.013324 -0.987601 -0.156421
vn 0.013324 -0.987601 0.156421
vn 0.013324 -0.987601 0.156421
vn 0.013324 -0.987601 0.156421
vn 0.013324 -0.987601 0.156421
vn 0.013327 -0.890929 0.453948
vn 0.013327 -0.890928 0.453948
vn 0.013327 -0.890928 0.453948
vn 0.013327 -0.890928 0.453948
vn 0.013330 -0.707046 0.707042
vn 0.013330 -0.707046 0.707042
vn 0.013330 -0.707046 0.707042
vn 0.013330 -0.707046 0.707042
vn 0.013335 -0.453949 0.890928
vn 0.013335 -0.453949 0.890928
vn 0.013335 -0.453949 0.890928
vn 0.013335 -0.453949 0.890928
vn 0.013330 -0.156429 0.987599
vn 0.013330 -0.156429 0.987599
vn 0.013330 -0.156429 0.987599
vn 0.013330 -0.156429 0.987599
vn 0.013330 0.156429 0.987599
vn 0.013330 0.156429 0.987599
vn 0.013330 0.156429 0.987599
vn 0.013330 0.156429 0.987599
vn 0.013330 0.453949 0.890928
vn 0.013330 0.453949 0.890928
vn 0.013330 0.453949 0.890928
vn 0.013330 0.453949 0.890928
vn 0.013333 0.707045 0.707043
vn 0.013333 0.707045 0.707043
vn 0.013333 0.707045 0.707043
vn 0.013333 0.707045 0.707043
vn 0.013324 0.890927 0.453950
vn 0.013324 0.890928 0.453950
vn 0.013324 0.890928 0.453950
vn 0.013324 0.890928 0.453950
vn 0.013324 0.987601 0.156418
vn 0.013324 0.987601 0.156418
vn 0.013324 0.987601 0.156418
vn 0.013324 0.987601 0.156418
vn 0.013326 0.987601 -0.156421
vn 0.013326 0.987601 -0.156421
vn 0.013326 0.987601 -0.156421
vn 0.013326 0.987601 -0.156421
vn -1.000000 0.000000 0.000000
vn -1.000000 0.000000 0.000000
vn -1.000000 0.000000 0.000000
vn -1.000000 0.000000 0.000000
vn -1.000000 0.000000 0.000000
vn -1.000000 0.000000 0.000000
vn -1.000000 0.000000 0.000000
vn -1.000000 0.000000 0.000000
vn -1.000000 0.000000 0.000000
vn -1.000000 0.000000 0.000000
vn -1.000000 0.000000 0.000000
vn -1.000000 0.000000 0.000000
vn -1.000000 0.000000 0.000000
vn -1.000000 0.000000 0.000000
vn -1.000000 0.000000 0.000000
vn -1.000000 0.000000 0.000000
vn -1.000000 0.000000 0.000000
vn -1.000000 0.000000 0.000000
vn -1.000000 0.000000 0.000000
vn -1.000000 0.000000 0.000000
vn -1.000000 0.000000 0.000000
vn -1.000000 0.000000 0.000000
vn -1.000000 0.000000 0.000000
vn -1.000000 0.000000 0.000000
vn -1.000000 -0.000003 0.000000
vn -1.000000 -0.000003 0.000000
vn -1.000000 -0.000003 0.000000
vn -1.000000 -0.000003 0.000000
vn -1.000000 -0.000003 0.000000
vn -1.000000 -0.000003 0.000000
vn -1.000000 -0.000003 0.000000
vn -1.000000 -0.000003 0.000000
vn -1.000000 0.000000 0.000000
vn -1.000000 0.000000 0.000000
vn -1.000000 0.000000 0.000000
vn -1.000000 0.000000 0.000000
vn -1.000000 0.000000 0.000000
vn -1.000000 0.000000 0.000000
vn -1.000000 0.000000 0.000000
vn -1.000000 0.000000 0.000000
vn -1.000000 0.000000 0.000000
vn -1.000000 0.000000 0.000000
vn -1.000000 0.000000 0.000000
vn -1.000000 0.000000 0.000000
vn -1.000000 -0.000003 0.000000
vn -1.000000 -0.000003 0.000000
vn -1.000000 -0.000003 0.000000
vn -1.000000 -0.000003 0.000000
vn -1.000000 0.000000 0.000000
vn -1.000000 0.000000 0.000000
vn -1.000000 0.000000 0.000000
vn -1.000000 0.000000 0.000000
vn -1.000000 0.000002 0.000000
vn -1.000000 0.000002 0.000000
vn -1.000000 0.000002 0.000000
vn -1.000000 0.000002 0.000000
vn -1.000000 -0.000002 0.000000
vn -1.000000 -0.000002 0.000000
vn -1.000000 -0.000002 0.000000
vn -1.000000 -0.000002 0.000000
vn -1.000000 0.000000 0.000000
vn -1.000000 0.000000 0.000000
vn -1.000000 0.000000 0.000000
vn -1.000000 0.000000 0.000000
vn -1.000000 0.000003 0.000000
vn -1.000000 0.000003 0.000000
vn -1.000000 0.000003 0.000000
vn -1.000000 0.000003 0.000000
vn -1.000000 0.000003 0.000000
vn -1.000000 0.000003 0.000000
vn -1.000000 0.000003 0.000000
vn -1.000000 0.000003 0.000000
vn -1.000000 0.000000 0.000000
vn -1.000000 0.000000 0.000000
vn -1.000000 0.000000 0.000000
vn -1.000000 0.000000 0.000000
vn -1.000000 0.000000 0.000000
vn -1.000000 0.000000 0.000000
vn -1.000000 0.000000 0.000000
vn -1.000000 0.000000 0.000000
s 1
g r_12:Mesh
usemtl initialShadingGroup
f 21/1/1 18/2/2 22/4/3
f 22/4/3 18/2/2 19/3/4
s 2
f 21/1/5 23/5/6 18/2/7
f 18/2/7 23/5/6 17/6/8
s 3
f 24/7/9 16/8/10 23/5/11
f 23/5/11 16/8/10 17/6/12
s 4
f 25/9/13 15/10/14 24/7/15
f 24/7/15 15/10/14 16/8/16
s 5
f 26/11/17 14/12/18 25/9/19
f 25/9/19 14/12/18 15/10/20
s 6
f 27/13/21 13/14/22 26/11/23
f 26/11/23 13/14/22 14/12/24
s 7
f 28/15/25 12/16/26 27/13/27
f 27/13/27 12/16/26 13/14/28
s 8
f 29/17/29 11/18/30 28/15/31
f 28/15/31 11/18/30 12/16/32
s 9
f 30/19/33 10/20/34 29/17/35
f 29/17/35 10/20/34 11/18/36
s 10
f 31/21/37 9/22/38 30/19/39
f 30/19/39 9/22/38 10/20/40
s 11
f 32/23/41 8/24/42 31/21/43
f 31/21/43 8/24/42 9/22/44
s 12
f 33/25/45 7/26/46 32/23/47
f 32/23/47 7/26/46 8/24/48
s 13
f 34/27/49 6/28/50 33/25/51
f 33/25/51 6/28/50 7/26/52
s 14
f 35/29/53 5/30/54 34/27/55
f 34/27/55 5/30/54 6/28/56
s 15
f 36/31/57 4/32/58 35/29/59
f 35/29/59 4/32/58 5/30/60
s 16
f 37/33/61 3/34/62 36/31/63
f 36/31/63 3/34/62 4/32/64
s 17
f 37/33/65 38/35/66 3/34/67
f 3/34/67 38/35/66 2/36/68
s 18
f 39/37/69 1/38/70 38/35/71
f 38/35/71 1/38/70 2/36/72
s 19
f 40/39/73 20/40/74 39/37/75
f 39/37/75 20/40/74 1/38/76
s 20
f 22/4/77 19/3/78 40/39/79
f 40/39/79 19/3/78 20/40/80
s 21
f 1/41/81 42/42/82 2/44/83
f 2/44/83 42/42/82 41/43/84
s 22
f 3/45/85 2/46/86 43/48/87
f 43/48/87 2/46/86 41/47/88
s 23
f 3/49/89 43/50/90 4/52/91
f 4/52/91 43/50/90 44/51/92
s 24
f 4/53/93 44/54/94 5/56/95
f 5/56/95 44/54/94 45/55/96
s 25
f 5/57/97 45/58/98 6/60/99
f 6/60/99 45/58/98 46/59/100
s 26
f 6/61/101 46/62/102 7/64/103
f 7/64/103 46/62/102 47/63/104
s 27
f 7/65/105 47/66/106 8/68/107
f 8/68/107 47/66/106 48/67/108
s 28
f 8/69/109 48/70/110 9/72/111
f 9/72/111 48/70/110 49/71/112
s 29
f 9/73/113 49/74/114 10/76/115
f 10/76/115 49/74/114 50/75/116
s 30
f 10/77/117 50/78/118 11/80/119
f 11/80/119 50/78/118 51/79/120
s 31
f 11/81/121 51/82/122 12/84/123
f 12/84/123 51/82/122 52/83/124
s 32
f 12/85/125 52/86/126 13/88/127
f 13/88/127 52/86/126 53/87/128
s 33
f 13/89/129 53/90/130 14/92/131
f 14/92/131 53/90/130 54/91/132
s 34
f 14/93/133 54/94/134 15/96/135
f 15/96/135 54/94/134 55/95/136
s 35
f 15/97/137 55/98/138 16/100/139
f 16/100/139 55/98/138 56/99/140
s 36
f 16/101/141 56/102/142 17/104/143
f 17/104/143 56/102/142 57/103/144
s 37
f 18/105/145 17/106/146 58/108/147
f 58/108/147 17/106/146 57/107/148
s 38
f 18/109/149 58/110/150 19/112/151
f 19/112/151 58/110/150 59/111/152
s 39
f 19/113/153 59/114/154 20/116/155
f 20/116/155 59/114/154 60/115/156
s 40
f 20/117/157 60/118/158 1/120/159
f 1/120/159 60/118/158 42/119/160
