# This file uses centimeters as units for non-parametric coordinates.

mtllib field_square.mtl
g default
v -42.605324 -42.605324 0.000000
v -31.953993 -42.605324 0.000000
v -21.302662 -42.605324 0.000000
v -10.651331 -42.605324 0.000000
v 0.000000 -42.605324 0.000000
v 10.651331 -42.605324 0.000000
v 21.302662 -42.605324 0.000000
v 31.953993 -42.605324 0.000000
v 42.605324 -42.605324 0.000000
v -42.605324 -31.953993 0.000000
v -31.953993 -31.953993 0.000000
v -21.302662 -31.953993 0.000000
v -10.651331 -31.953993 0.000000
v 0.000000 -31.953993 0.000000
v 10.651331 -31.953993 0.000000
v 21.302662 -31.953993 0.000000
v 31.953993 -31.953993 0.000000
v 42.605324 -31.953993 0.000000
v -42.605324 -21.302662 0.000000
v -31.953993 -21.302662 0.000000
v 31.953993 -21.302662 0.000000
v 42.605324 -21.302662 0.000000
v -42.605324 -10.651331 0.000000
v -31.953993 -10.651331 0.000000
v 31.953993 -10.651331 0.000000
v 42.605324 -10.651331 0.000000
v -42.605324 0.000000 0.000000
v -31.953993 0.000000 0.000000
v 31.953993 0.000000 0.000000
v 42.605324 0.000000 0.000000
v -42.605324 10.651331 0.000000
v -31.953993 10.651331 0.000000
v 31.953993 10.651331 0.000000
v 42.605324 10.651331 0.000000
v -42.605324 21.302662 0.000000
v -31.953993 21.302662 0.000000
v 31.953993 21.302662 0.000000
v 42.605324 21.302662 0.000000
v -42.605324 31.953993 0.000000
v -31.953993 31.953993 0.000000
v -21.302662 31.953993 0.000000
v -10.651331 31.953993 0.000000
v 0.000000 31.953993 0.000000
v 10.651331 31.953993 0.000000
v 21.302662 31.953993 0.000000
v 31.953993 31.953993 0.000000
v 42.605324 31.953993 0.000000
v -42.605324 42.605324 0.000000
v -31.953993 42.605324 0.000000
v -21.302662 42.605324 0.000000
v -10.651331 42.605324 0.000000
v 0.000000 42.605324 0.000000
v 10.651331 42.605324 0.000000
v 21.302662 42.605324 0.000000
v 31.953993 42.605324 0.000000
v 42.605324 42.605324 0.000000
vt 0.000000 0.000000
vt 0.125000 0.000000
vt 0.250000 0.000000
vt 0.375000 0.000000
vt 0.500000 0.000000
vt 0.625000 0.000000
vt 0.750000 0.000000
vt 0.875000 0.000000
vt 1.000000 0.000000
vt 0.000000 0.125000
vt 0.125000 0.125000
vt 0.250000 0.125000
vt 0.375000 0.125000
vt 0.500000 0.125000
vt 0.625000 0.125000
vt 0.750000 0.125000
vt 0.875000 0.125000
vt 1.000000 0.125000
vt 0.000000 0.250000
vt 0.125000 0.250000
vt 0.875000 0.250000
vt 1.000000 0.250000
vt 0.000000 0.375000
vt 0.125000 0.375000
vt 0.875000 0.375000
vt 1.000000 0.375000
vt 0.000000 0.500000
vt 0.125000 0.500000
vt 0.875000 0.500000
vt 1.000000 0.500000
vt 0.000000 0.625000
vt 0.125000 0.625000
vt 0.875000 0.625000
vt 1.000000 0.625000
vt 0.000000 0.750000
vt 0.125000 0.750000
vt 0.875000 0.750000
vt 1.000000 0.750000
vt 0.000000 0.875000
vt 0.125000 0.875000
vt 0.250000 0.875000
vt 0.375000 0.875000
vt 0.500000 0.875000
vt 0.625000 0.875000
vt 0.750000 0.875000
vt 0.875000 0.875000
vt 1.000000 0.875000
vt 0.000000 1.000000
vt 0.125000 1.000000
vt 0.250000 1.000000
vt 0.375000 1.000000
vt 0.500000 1.000000
vt 0.625000 1.000000
vt 0.750000 1.000000
vt 0.875000 1.000000
vt 1.000000 1.000000
vn 0.000000 0.000000 1.000000
vn 0.000000 0.000000 1.000000
vn 0.000000 0.000000 1.000000
vn 0.000000 0.000000 1.000000
vn 0.000000 0.000000 1.000000
vn 0.000000 0.000000 1.000000
vn 0.000000 0.000000 1.000000
vn 0.000000 0.000000 1.000000
vn 0.000000 0.000000 1.000000
vn 0.000000 0.000000 1.000000
vn 0.000000 0.000000 1.000000
vn 0.000000 0.000000 1.000000
vn 0.000000 0.000000 1.000000
vn 0.000000 0.000000 1.000000
vn 0.000000 0.000000 1.000000
vn 0.000000 0.000000 1.000000
vn 0.000000 0.000000 1.000000
vn 0.000000 0.000000 1.000000
vn 0.000000 0.000000 1.000000
vn 0.000000 0.000000 1.000000
vn 0.000000 0.000000 1.000000
vn 0.000000 0.000000 1.000000
vn 0.000000 0.000000 1.000000
vn 0.000000 0.000000 1.000000
vn 0.000000 0.000000 1.000000
vn 0.000000 0.000000 1.000000
vn 0.000000 0.000000 1.000000
vn 0.000000 0.000000 1.000000
vn 0.000000 0.000000 1.000000
vn 0.000000 0.000000 1.000000
vn 0.000000 0.000000 1.000000
vn 0.000000 0.000000 1.000000
vn 0.000000 0.000000 1.000000
vn 0.000000 0.000000 1.000000
vn 0.000000 0.000000 1.000000
vn 0.000000 0.000000 1.000000
vn 0.000000 0.000000 1.000000
vn 0.000000 0.000000 1.000000
vn 0.000000 0.000000 1.000000
vn 0.000000 0.000000 1.000000
vn 0.000000 0.000000 1.000000
vn 0.000000 0.000000 1.000000
vn 0.000000 0.000000 1.000000
vn 0.000000 0.000000 1.000000
vn 0.000000 0.000000 1.000000
vn 0.000000 0.000000 1.000000
vn 0.000000 0.000000 1.000000
vn 0.000000 0.000000 1.000000
vn 0.000000 0.000000 1.000000
vn 0.000000 0.000000 1.000000
vn 0.000000 0.000000 1.000000
vn 0.000000 0.000000 1.000000
vn 0.000000 0.000000 1.000000
vn 0.000000 0.000000 1.000000
vn 0.000000 0.000000 1.000000
vn 0.000000 0.000000 1.000000
s 1
g pPlane18
usemtl initialShadingGroup
f 1/1/1 2/2/2 11/11/3 10/10/4
f 2/2/2 3/3/5 12/12/6 11/11/3
f 3/3/5 4/4/7 13/13/8 12/12/6
f 4/4/7 5/5/9 14/14/10 13/13/8
f 5/5/9 6/6/11 15/15/12 14/14/10
f 6/6/11 7/7/13 16/16/14 15/15/12
f 7/7/13 8/8/15 17/17/16 16/16/14
f 8/8/15 9/9/17 18/18/18 17/17/16
f 10/10/4 11/11/3 20/20/19 19/19/20
f 17/17/16 18/18/18 22/22/21 21/21/22
f 19/19/20 20/20/19 24/24/23 23/23/24
f 21/21/22 22/22/21 26/26/25 25/25/26
f 23/23/24 24/24/23 28/28/27 27/27/28
f 25/25/26 26/26/25 30/30/29 29/29/30
f 27/27/28 28/28/27 32/32/31 31/31/32
f 29/29/30 30/30/29 34/34/33 33/33/34
f 31/31/32 32/32/31 36/36/35 35/35/36
f 33/33/34 34/34/33 38/38/37 37/37/38
f 35/35/36 36/36/35 40/40/39 39/39/40
f 37/37/38 38/38/37 47/47/41 46/46/42
f 39/39/40 40/40/39 49/49/43 48/48/44
f 40/40/39 41/41/45 50/50/46 49/49/43
f 41/41/45 42/42/47 51/51/48 50/50/46
f 42/42/47 43/43/49 52/52/50 51/51/48
f 43/43/49 44/44/51 53/53/52 52/52/50
f 44/44/51 45/45/53 54/54/54 53/53/52
f 45/45/53 46/46/42 55/55/55 54/54/54
f 46/46/42 47/47/41 56/56/56 55/55/55
