# This file uses centimeters as units for non-parametric coordinates.

mtllib field.mtl
g default
v 4.253119 1.381922 0.000000
v 3.617920 2.628572 0.000000
v 2.628572 3.617918 0.000000
v 1.381922 4.253118 0.000000
v 0.000000 4.471993 0.000000
v -1.381922 4.253118 0.000000
v -2.628571 3.617918 0.000000
v -3.617918 2.628571 0.000000
v -4.253118 1.381921 0.000000
v -4.471992 -0.000001 0.000000
v -4.253118 -1.381922 0.000000
v -3.617918 -2.628572 0.000000
v -2.628571 -3.617918 0.000000
v -1.381921 -4.253118 0.000000
v 0.000000 -4.471992 0.000000
v 1.381922 -4.253118 0.000000
v 2.628571 -3.617918 0.000000
v 3.617917 -2.628571 0.000000
v 4.253117 -1.381922 0.000000
v 4.471992 -0.000001 0.000000
v 2.126560 0.690960 0.000000
v 1.808960 1.314286 0.000000
v 1.314286 1.808959 0.000000
v 0.690961 2.126559 0.000000
v 0.000000 2.235996 0.000000
v -0.690961 2.126559 0.000000
v -1.314285 1.808959 0.000000
v -1.808959 1.314285 0.000000
v -2.126559 0.690960 0.000000
v -2.235996 -0.000001 0.000000
v -2.126559 -0.690961 0.000000
v -1.808959 -1.314286 0.000000
v -1.314285 -1.808959 0.000000
v -0.690960 -2.126559 0.000000
v 0.000000 -2.235996 0.000000
v 0.690961 -2.126559 0.000000
v 1.314286 -1.808959 0.000000
v 1.808959 -1.314286 0.000000
v 2.126559 -0.690961 0.000000
v 2.235996 -0.000001 0.000000
vt 0.648603 0.795466
vt 0.626409 0.751908
vt 0.591842 0.717341
vt 0.548284 0.695147
vt 0.500000 0.687500
vt 0.451716 0.695147
vt 0.408159 0.717341
vt 0.373591 0.751909
vt 0.351397 0.795466
vt 0.343750 0.843750
vt 0.351397 0.892034
vt 0.373591 0.935591
vt 0.408159 0.970159
vt 0.451716 0.992353
vt 0.500000 1.000000
vt 0.548284 0.992353
vt 0.591841 0.970159
vt 0.626409 0.935591
vt 0.648603 0.892034
vt 0.656250 0.843750
vt 0.574301 0.819608
vt 0.563205 0.797829
vt 0.545921 0.780545
vt 0.524142 0.769449
vt 0.500000 0.765625
vt 0.475858 0.769449
vt 0.454079 0.780546
vt 0.436796 0.797829
vt 0.425699 0.819608
vt 0.421875 0.843750
vt 0.425699 0.867892
vt 0.436796 0.889671
vt 0.454079 0.906954
vt 0.475858 0.918051
vt 0.500000 0.921875
vt 0.524142 0.918051
vt 0.545921 0.906954
vt 0.563204 0.889671
vt 0.574301 0.867892
vt 0.578125 0.843750
vn 0.000000 0.000000 1.000000
vn 0.000000 0.000000 1.000000
vn 0.000000 0.000000 1.000000
vn 0.000000 0.000000 1.000000
vn 0.000000 0.000000 1.000000
vn 0.000000 0.000000 1.000000
vn 0.000000 0.000000 1.000000
vn 0.000000 0.000000 1.000000
vn 0.000000 0.000000 1.000000
vn 0.000000 0.000000 1.000000
vn 0.000000 0.000000 1.000000
vn 0.000000 0.000000 1.000000
vn 0.000000 0.000000 1.000000
vn 0.000000 0.000000 1.000000
vn 0.000000 0.000000 1.000000
vn 0.000000 0.000000 1.000000
vn 0.000000 0.000000 1.000000
vn 0.000000 0.000000 1.000000
vn 0.000000 0.000000 1.000000
vn 0.000000 0.000000 1.000000
vn 0.000000 0.000000 1.000000
vn 0.000000 0.000000 1.000000
vn 0.000000 0.000000 1.000000
vn 0.000000 0.000000 1.000000
vn 0.000000 0.000000 1.000000
vn 0.000000 0.000000 1.000000
vn 0.000000 0.000000 1.000000
vn 0.000000 0.000000 1.000000
vn 0.000000 0.000000 1.000000
vn 0.000000 0.000000 1.000000
vn 0.000000 0.000000 1.000000
vn 0.000000 0.000000 1.000000
vn 0.000000 0.000000 1.000000
vn 0.000000 0.000000 1.000000
vn 0.000000 0.000000 1.000000
vn 0.000000 0.000000 1.000000
vn 0.000000 0.000000 1.000000
vn 0.000000 0.000000 1.000000
vn 0.000000 0.000000 1.000000
vn 0.000000 0.000000 1.000000
s 1
g pCylinder2
usemtl initialShadingGroup
f 1/19/1 2/18/2 22/38/3 21/39/4
f 2/18/2 3/17/5 23/37/6 22/38/3
f 3/17/5 4/16/7 24/36/8 23/37/6
f 4/16/7 5/15/9 25/35/10 24/36/8
f 5/15/9 6/14/11 26/34/12 25/35/10
f 6/14/11 7/13/13 27/33/14 26/34/12
f 7/13/13 8/12/15 28/32/16 27/33/14
f 8/12/15 9/11/17 29/31/18 28/32/16
f 9/11/17 10/10/19 30/30/20 29/31/18
f 10/10/19 11/9/21 31/29/22 30/30/20
f 11/9/21 12/8/23 32/28/24 31/29/22
f 12/8/23 13/7/25 33/27/26 32/28/24
f 13/7/25 14/6/27 34/26/28 33/27/26
f 14/6/27 15/5/29 35/25/30 34/26/28
f 15/5/29 16/4/31 36/24/32 35/25/30
f 16/4/31 17/3/33 37/23/34 36/24/32
f 17/3/33 18/2/35 38/22/36 37/23/34
f 18/2/35 19/1/37 39/21/38 38/22/36
f 19/1/37 20/20/39 40/40/40 39/21/38
f 20/20/39 1/19/1 21/39/4 40/40/40
