# Rhino

mtllib box.mtl
usemtl Custom (1)
v 36.170551300048828 -16.25 30
v 36.170551300048828 -16.25 0
v 51.170551300048828 -16.25 30
v 51.170551300048828 -16.25 0
v 51.170551300048828 -16.25 30
v 51.170551300048828 -16.25 0
v 51.170551300048828 -31.25 30
v 51.170551300048828 -31.25 0
v 51.170551300048828 -31.25 30
v 51.170551300048828 -31.25 0
v 36.170551300048828 -31.25 30
v 36.170551300048828 -31.25 0
v 36.170551300048828 -31.25 30
v 36.170551300048828 -31.25 0
v 36.170551300048828 -16.25 30
v 36.170551300048828 -16.25 0
v 36.170551300048828 -16.25 30
v 51.170551300048828 -16.25 30
v 51.170551300048828 -31.25 30
v 36.170551300048828 -31.25 30
v 36.170551300048828 -16.25 0
v 51.170551300048828 -16.25 0
v 51.170551300048828 -31.25 0
v 36.170551300048828 -31.25 0
vt 0 0
vt 0 0.85714215040206909
vt 0.1666666716337204 0
vt 0.1666666716337204 0.85714215040206909
vt 0.1666666716337204 0
vt 0.1666666716337204 0.85714215040206909
vt 0.5 0
vt 0.5 0.85714215040206909
vt 0.5 0
vt 0.5 0.85714215040206909
vt 0.66666668653488159 0
vt 0.66666668653488159 0.85714215040206909
vt 0.66666668653488159 0
vt 0.66666668653488159 0.85714215040206909
vt 1 0
vt 1 0.85714215040206909
vt 0.3333333432674408 1
vt 0.3333333432674408 0.85714298486709595
vt 0 0.85714298486709595
vt 0 1
vt 1 0.85714298486709595
vt 1 1
vt 0.66666668653488159 1
vt 0.66666668653488159 0.85714298486709595
vn 0 1 0
vn 0 1 0
vn 0 1 0
vn 0 1 0
vn 1 0 0
vn 1 0 0
vn 1 0 0
vn 1 0 0
vn 0 -1 0
vn 0 -1 0
vn 0 -1 0
vn 0 -1 0
vn -1 0 0
vn -1 0 0
vn -1 0 0
vn -1 0 0
vn 0 0 1
vn 0 0 1
vn 0 0 1
vn 0 0 1
vn 0 0 -1
vn 0 0 -1
vn 0 0 -1
vn 0 0 -1
f 1/1/1 3/3/3 4/4/4 2/2/2
f 5/5/5 7/7/7 8/8/8 6/6/6
f 9/9/9 11/11/11 12/12/12 10/10/10
f 13/13/13 15/15/15 16/16/16 14/14/14
f 17/17/17 20/20/20 19/19/19 18/18/18
f 23/23/23 24/24/24 21/21/21 22/22/22
