# This file uses centimeters as units for non-parametric coordinates.

mtllib merged_tube.mtl
g default
v 4.978852 -4.978852 0.000000
v -4.978852 4.978852 0.000000
v 0.711265 -5.156668 0.000000
v 5.156668 -0.711265 0.000000
v -0.711265 5.156668 0.000000
v -5.156668 0.711265 0.000000
v -0.177816 -1.778161 0.000000
v 1.778161 0.177816 0.000000
v 0.177816 1.778161 0.000000
v -1.778161 -0.177816 0.000000
v 0.711265 -5.156668 10.435635
v 4.978852 -4.978852 10.435636
v 5.156668 -0.711265 10.435635
v 1.778161 0.177816 10.435635
v -0.177816 -1.778161 10.435635
v -4.978852 4.978852 10.435636
v -0.711265 5.156668 10.435635
v -5.156668 0.711265 10.435635
v -1.778161 -0.177816 10.435635
v 0.177816 1.778161 10.435635
v -3.556323 0.000000 0.000000
v -1.778161 -0.177816 5.217817
v -3.556323 -0.000000 10.435635
v 0.000000 3.556323 0.000000
v 0.000000 3.556323 10.435635
v 0.177816 1.778161 5.217817
v -0.711265 -0.711265 0.000000
v -0.711265 -0.711265 10.435635
v 0.711265 0.711265 0.000000
v 0.711265 0.711265 10.435635
v 2.845058 -5.690116 0.000000
v 4.978852 -4.978852 5.217817
v 2.845058 -5.690116 10.435636
v 0.711265 -5.156668 5.217817
v 5.690116 -2.845058 0.000000
v 5.156668 -0.711265 5.217817
v 5.690116 -2.845058 10.435636
v 3.556323 0.000000 0.000000
v 1.778161 0.177816 5.217817
v 3.556323 0.000000 10.435635
v 0.000000 -3.556323 0.000000
v 0.000000 -3.556323 10.435635
v -0.177816 -1.778161 5.217817
v -2.845058 5.690116 0.000000
v -4.978852 4.978852 5.217817
v -2.845058 5.690116 10.435636
v -0.711265 5.156668 5.217817
v -5.690116 2.845058 0.000000
v -5.156668 0.711265 5.217817
v -5.690116 2.845058 10.435636
v 2.845058 -5.690116 5.217818
v 5.690116 -2.845058 5.217818
v 3.556323 0.000000 5.217817
v 0.000000 -3.556323 5.217817
v -2.845058 5.690116 5.217818
v -5.690116 2.845058 5.217818
v -3.556323 -0.000000 5.217817
v 0.000000 3.556323 5.217817
v -0.711265 -0.711265 5.217817
v 0.711265 0.711265 5.217817
vt 1.000000 0.000000
vt 0.000000 1.000000
vt 0.500000 0.000000
vt 1.000000 0.500000
vt 0.500000 1.000000
vt 0.000000 0.500000
vt 0.500000 0.250000
vt 0.750000 0.500000
vt 0.500000 0.750000
vt 0.250000 0.500000
vt 0.500000 0.000000
vt 1.000000 0.000000
vt 1.000000 0.500000
vt 0.750000 0.500000
vt 0.500000 0.250000
vt 0.000000 1.000000
vt 0.500000 1.000000
vt 0.000000 0.500000
vt 0.250000 0.500000
vt 0.500000 0.750000
vt 0.750000 0.000000
vt 1.000000 0.250000
vt 0.875000 0.500000
vt 0.500000 0.125000
vt 0.250000 1.000000
vt 0.000000 0.750000
vt 0.125000 0.500000
vt 0.500000 0.875000
vt 0.375000 0.375000
vt 0.625000 0.625000
vt 0.750000 0.000000
vt 0.937500 0.062500
vt 0.750000 0.000000
vt 0.562500 0.031250
vt 1.000000 0.250000
vt 0.968750 0.437500
vt 1.000000 0.250000
vt 0.875000 0.500000
vt 0.750000 0.531250
vt 0.875000 0.500000
vt 0.500000 0.125000
vt 0.500000 0.125000
vt 0.468750 0.250000
vt 0.250000 1.000000
vt 0.062500 0.937500
vt 0.250000 1.000000
vt 0.437500 0.968750
vt 0.000000 0.750000
vt 0.031250 0.562500
vt 0.000000 0.750000
vt 0.125000 0.500000
vt 0.250000 0.468750
vt 0.125000 0.500000
vt 0.500000 0.875000
vt 0.500000 0.875000
vt 0.531250 0.750000
vt 0.375000 0.375000
vt 0.375000 0.375000
vt 0.625000 0.625000
vt 0.625000 0.625000
vn -0.600000 -0.800000 0.000000
vn 0.041631 -0.999133 0.000000
vn 0.041631 -0.999133 0.000000
vn -0.600000 -0.800000 0.000000
vn 0.707107 -0.707107 0.000000
vn 0.707107 -0.707107 0.000000
vn 0.707107 -0.707107 0.000000
vn 0.041631 -0.999133 0.000000
vn -0.600000 -0.800000 0.000000
vn 0.999133 -0.041631 0.000000
vn 0.999133 -0.041631 0.000000
vn 0.800000 0.600000 0.000000
vn 0.800000 0.600000 0.000000
vn 0.800000 0.600000 0.000000
vn 0.999133 -0.041631 0.000000
vn 0.254493 0.967075 0.000000
vn 0.254493 0.967075 0.000000
vn 0.242536 0.970143 0.000000
vn 0.242536 0.970143 0.000000
vn 0.242536 0.970143 0.000000
vn 0.254493 0.967075 0.000000
vn -0.970143 -0.242536 0.000000
vn -0.967075 -0.254493 0.000000
vn -0.967075 -0.254493 0.000000
vn -0.970142 -0.242536 0.000000
vn -0.967075 -0.254493 0.000000
vn -0.970143 -0.242536 0.000000
vn 0.600000 0.800000 0.000000
vn -0.041631 0.999133 0.000000
vn -0.041631 0.999133 0.000000
vn 0.600000 0.800000 0.000000
vn -0.707107 0.707107 0.000000
vn -0.707107 0.707107 0.000000
vn -0.707107 0.707107 0.000000
vn -0.041631 0.999133 0.000000
vn 0.600000 0.800000 0.000000
vn -0.999133 0.041631 0.000000
vn -0.999133 0.041631 0.000000
vn -0.800000 -0.600000 0.000000
vn -0.800000 -0.600000 0.000000
vn -0.800000 -0.600000 0.000000
vn -0.999133 0.041631 0.000000
vn -0.254493 -0.967075 0.000000
vn -0.254493 -0.967075 0.000000
vn -0.242536 -0.970143 0.000000
vn -0.242536 -0.970143 0.000000
vn -0.242536 -0.970143 0.000000
vn -0.254493 -0.967075 0.000000
vn 0.970143 0.242536 0.000000
vn 0.967075 0.254493 0.000000
vn 0.967075 0.254493 0.000000
vn 0.970142 0.242536 0.000000
vn 0.967075 0.254493 0.000000
vn 0.970143 0.242536 0.000000
vn -0.707107 -0.707107 0.000000
vn -0.707107 -0.707107 0.000000
vn -0.707107 -0.707107 0.000000
vn 0.707107 0.707107 0.000000
vn 0.707107 0.707107 0.000000
vn 0.707107 0.707107 0.000000
s 1
g pPlane1
usemtl initialShadingGroup
f 3/3/1 31/31/2 51/21/3 34/34/4
f 31/31/2 1/1/5 32/32/6 51/21/3
f 51/21/3 32/32/6 12/12/7 33/33/8
f 34/34/4 51/21/3 33/33/8 11/11/9
f 1/1/5 35/35/10 52/22/11 32/32/6
f 35/35/10 4/4/12 36/36/13 52/22/11
f 52/22/11 36/36/13 13/13/14 37/37/15
f 32/32/6 52/22/11 37/37/15 12/12/7
f 4/4/12 38/38/16 53/23/17 36/36/13
f 38/38/16 8/8/18 39/39/19 53/23/17
f 53/23/17 39/39/19 14/14/20 40/40/21
f 36/36/13 53/23/17 40/40/21 13/13/14
f 7/7/22 41/41/23 54/24/24 43/43/25
f 41/41/23 3/3/1 34/34/4 54/24/24
f 54/24/24 34/34/4 11/11/9 42/42/26
f 43/43/25 54/24/24 42/42/26 15/15/27
f 5/5/28 44/44/29 55/25/30 47/47/31
f 44/44/29 2/2/32 45/45/33 55/25/30
f 55/25/30 45/45/33 16/16/34 46/46/35
f 47/47/31 55/25/30 46/46/35 17/17/36
f 2/2/32 48/48/37 56/26/38 45/45/33
f 48/48/37 6/6/39 49/49/40 56/26/38
f 56/26/38 49/49/40 18/18/41 50/50/42
f 45/45/33 56/26/38 50/50/42 16/16/34
f 6/6/39 21/51/43 57/27/44 49/49/40
f 21/51/43 10/10/45 22/52/46 57/27/44
f 57/27/44 22/52/46 19/19/47 23/53/48
f 49/49/40 57/27/44 23/53/48 18/18/41
f 9/9/49 24/54/50 58/28/51 26/56/52
f 24/54/50 5/5/28 47/47/31 58/28/51
f 58/28/51 47/47/31 17/17/36 25/55/53
f 26/56/52 58/28/51 25/55/53 20/20/54
f 10/10/45 27/57/55 59/29/56 22/52/46
f 27/57/55 7/7/22 43/43/25 59/29/56
f 59/29/56 43/43/25 15/15/27 28/58/57
f 22/52/46 59/29/56 28/58/57 19/19/47
f 8/8/18 29/59/58 60/30/59 39/39/19
f 29/59/58 9/9/49 26/56/52 60/30/59
f 60/30/59 26/56/52 20/20/54 30/60/60
f 39/39/19 60/30/59 30/60/60 14/14/20
